<?xml version="1.0" encoding="utf-8"?>
<!-- Generator: Adobe Illustrator 24.0.2, SVG Export Plug-In . SVG Version: 6.00 Build 0)  -->
<svg version="1.1" id="Icon" xmlns="http://www.w3.org/2000/svg" xmlns:xlink="http://www.w3.org/1999/xlink" x="0px" y="0px"
	 viewBox="0 0 959 895.7" style="enable-background:new 0 0 959 895.7;" xml:space="preserve">
<style type="text/css">
	.st0{display:none;fill-rule:evenodd;clip-rule:evenodd;fill:#AC74EE;}
	.st1{fill:none;}
	.st2{fill-rule:evenodd;clip-rule:evenodd;fill:#FFFFFF;}
	.st3{clip-path:url(#SVGID_2_);}
	.st4{fill:none;stroke:#F1F1F1;stroke-width:2;}
	.st5{fill:#F3F6F8;}
	.st6{clip-path:url(#SVGID_4_);}
	.st7{fill:none;stroke:#B5B5B5;stroke-width:3.06;}
	.st8{clip-path:url(#SVGID_6_);}
	.st9{display:none;}
	.st10{display:inline;}
	.st11{clip-path:url(#SVGID_8_);}
	.st12{display:inline;fill:#F3F6F8;}
	.st13{clip-path:url(#SVGID_10_);}
	.st14{clip-path:url(#SVGID_12_);}
</style>
<path id="Shape" class="st0" d="M787.5,356.2v-27c0-1.4,1.1-2.5,2.4-2.5c0,0,0,0,0.1,0h27c1.4,0,2.5,1.1,2.5,2.4c0,0,0,0,0,0.1v27
	c0,1.4-1.1,2.5-2.4,2.5c0,0,0,0-0.1,0h-27C788.7,358.7,787.5,357.6,787.5,356.2z M792.5,331.7h22v22h-22V331.7z"/>
<path id="Shape-2" class="st0" d="M857.5,356.2c0,1.4-1.1,2.5-2.4,2.5c0,0,0,0-0.1,0h-27c-1.4,0-2.5-1.1-2.5-2.4c0,0,0,0,0-0.1v-27
	c0-1.4,1.1-2.5,2.4-2.5c0,0,0,0,0.1,0h27c1.4,0,2.5,1.1,2.5,2.4c0,0,0,0,0,0.1V356.2z M852.5,353.7h-22v-22h22V353.7L852.5,353.7z"
	/>
<path id="Shape_copy" class="st0" d="M857.5,394.2c0,1.4-1.1,2.5-2.4,2.5c0,0,0,0-0.1,0h-27c-1.4,0-2.5-1.1-2.5-2.4c0,0,0,0,0-0.1
	v-27c0-1.4,1.1-2.5,2.4-2.5c0,0,0,0,0.1,0h27c1.4,0,2.5,1.1,2.5,2.4c0,0,0,0,0,0.1V394.2z M852.5,391.7h-22v-22h22V391.7
	L852.5,391.7z"/>
<path id="Shape-3" class="st0" d="M787.5,394.2v-27c0-1.4,1.1-2.5,2.4-2.5c0,0,0,0,0.1,0h27c1.4,0,2.5,1.1,2.5,2.4c0,0,0,0,0,0.1v27
	c0,1.4-1.1,2.5-2.4,2.5c0,0,0,0-0.1,0h-27C788.7,396.7,787.5,395.6,787.5,394.2z M792.5,369.7h22v22h-22V369.7L792.5,369.7z"/>
<desc>Created with Lunacy</desc>
<g id="Screen">
	<g id="iPhone-Copy" transform="matrix(0.9659258 -0.258819 0.258819 0.9659258 449 91.88077)">
		<g>
			<path id="Shadow" class="st1" d="M-293.1,627.8l-276.3-159.5l70-121.2l276.3,159.5L-293.1,627.8z"/>
		</g>
		<g>
			<g id="iPhone">
				<g>
					<path id="path_1" class="st2" d="M-198.7-137.7c-0.5-0.2-0.9-0.5-1.4-0.7c-0.5-0.2-1-0.4-1.4-0.6s-1-0.4-1.5-0.5
						c-0.5-0.2-1-0.3-1.5-0.5c-0.5-0.1-1-0.3-1.5-0.4c-0.5-0.1-1-0.2-1.5-0.3c-0.5-0.1-1-0.2-1.6-0.2c-0.5-0.1-1-0.1-1.6-0.2
						s-1-0.1-1.6-0.1c-0.5,0-1,0-1.6,0c-0.5,0-1,0-1.6,0.1c-0.5,0-1,0.1-1.6,0.1c-0.5,0.1-1,0.1-1.6,0.2c-0.5,0.1-1,0.2-1.5,0.3
						c-0.5,0.1-1,0.2-1.5,0.4c-0.5,0.1-1,0.3-1.5,0.4c-0.5,0.2-1,0.3-1.5,0.5c-0.5,0.2-1,0.4-1.5,0.6c-0.5,0.2-1,0.4-1.4,0.7
						c-0.5,0.2-0.9,0.5-1.4,0.7c-0.5,0.3-0.9,0.5-1.4,0.8c-0.4,0.3-0.9,0.6-1.3,0.9c-0.4,0.3-0.9,0.6-1.3,0.9
						c-0.4,0.3-0.8,0.6-1.2,1c-0.4,0.3-0.8,0.7-1.2,1c-0.4,0.4-0.8,0.7-1.1,1.1c-0.4,0.4-0.7,0.8-1.1,1.2c-0.3,0.4-0.7,0.8-1,1.2
						c-0.3,0.4-0.6,0.8-0.9,1.3c-0.3,0.4-0.6,0.9-0.9,1.3c-0.3,0.4-0.6,0.9-0.8,1.3L-299-24.9l-0.9-0.5c-0.1,0-0.1-0.1-0.2-0.1
						c-0.1,0-0.1-0.1-0.2-0.1c-0.1,0-0.1,0-0.2-0.1c-0.1,0-0.1,0-0.2,0c-0.1,0-0.1,0-0.2,0c-0.1,0-0.1,0-0.2,0c-0.1,0-0.1,0-0.2,0
						c-0.1,0-0.1,0-0.2,0c-0.1,0-0.1,0-0.2,0.1c-0.1,0-0.1,0-0.2,0.1c-0.1,0-0.1,0.1-0.2,0.1c-0.1,0-0.1,0.1-0.2,0.1
						c-0.1,0-0.1,0.1-0.1,0.1c0,0-0.1,0.1-0.1,0.1c0,0-0.1,0.1-0.1,0.2c0,0.1-0.1,0.1-0.1,0.2l-25.2,43.6c0,0.1-0.1,0.1-0.1,0.2
						c0,0.1-0.1,0.1-0.1,0.2c0,0.1,0,0.1-0.1,0.2c0,0.1,0,0.1,0,0.2c0,0.1,0,0.1,0,0.2c0,0.1,0,0.1,0,0.2c0,0.1,0,0.1,0,0.2
						c0,0.1,0,0.1,0,0.2c0,0.1,0,0.1,0.1,0.2c0,0.1,0,0.1,0.1,0.2c0,0.1,0.1,0.1,0.1,0.2c0,0.1,0.1,0.1,0.1,0.2
						c0,0.1,0.1,0.1,0.1,0.1c0,0,0.1,0.1,0.1,0.1c0,0,0.1,0.1,0.2,0.1c0.1,0,0.1,0.1,0.2,0.1l0.9,0.5l-238.9,413.8
						c-0.3,0.5-0.5,0.9-0.8,1.4c-0.2,0.5-0.5,0.9-0.7,1.4c-0.2,0.5-0.4,1-0.6,1.4c-0.2,0.5-0.4,1-0.5,1.5c-0.2,0.5-0.3,1-0.5,1.5
						c-0.1,0.5-0.3,1-0.4,1.5c-0.1,0.5-0.2,1-0.3,1.5c-0.1,0.5-0.2,1-0.2,1.6c-0.1,0.5-0.1,1-0.2,1.6s-0.1,1-0.1,1.6
						c0,0.5,0,1,0,1.6c0,0.5,0,1,0.1,1.6c0,0.5,0.1,1,0.1,1.6c0.1,0.5,0.1,1,0.2,1.6c0.1,0.5,0.2,1,0.3,1.5c0.1,0.5,0.2,1,0.4,1.5
						c0.1,0.5,0.3,1,0.4,1.5c0.2,0.5,0.3,1,0.5,1.5c0.2,0.5,0.4,1,0.6,1.5c0.2,0.5,0.4,1,0.7,1.4c0.2,0.5,0.5,0.9,0.7,1.4
						c0.3,0.5,0.5,0.9,0.8,1.4c0.3,0.4,0.6,0.9,0.9,1.3c0.3,0.4,0.6,0.9,0.9,1.3c0.3,0.4,0.6,0.8,1,1.2c0.3,0.4,0.7,0.8,1,1.2
						c0.4,0.4,0.7,0.8,1.1,1.1c0.4,0.4,0.8,0.7,1.2,1.1c0.4,0.3,0.8,0.7,1.2,1c0.4,0.3,0.8,0.6,1.3,0.9c0.4,0.3,0.9,0.6,1.3,0.9
						c0.4,0.3,0.9,0.6,1.3,0.8l245.9,142c0.5,0.3,0.9,0.5,1.4,0.8c0.5,0.2,0.9,0.5,1.4,0.7c0.5,0.2,1,0.4,1.4,0.6
						c0.5,0.2,1,0.4,1.5,0.5c0.5,0.2,1,0.3,1.5,0.5c0.5,0.1,1,0.3,1.5,0.4c0.5,0.1,1,0.2,1.5,0.3c0.5,0.1,1,0.2,1.6,0.2
						c0.5,0.1,1,0.1,1.6,0.2c0.5,0,1,0.1,1.6,0.1c0.5,0,1,0,1.6,0c0.5,0,1,0,1.6-0.1c0.5,0,1-0.1,1.6-0.1c0.5-0.1,1-0.1,1.6-0.2
						c0.5-0.1,1-0.2,1.5-0.3c0.5-0.1,1-0.2,1.5-0.4c0.5-0.1,1-0.3,1.5-0.4c0.5-0.2,1-0.3,1.5-0.5c0.5-0.2,1-0.4,1.5-0.6
						c0.5-0.2,1-0.4,1.4-0.7c0.5-0.2,0.9-0.5,1.4-0.7c0.5-0.3,0.9-0.5,1.4-0.8c0.4-0.3,0.9-0.6,1.3-0.9c0.4-0.3,0.9-0.6,1.3-0.9
						c0.4-0.3,0.8-0.6,1.2-1s0.8-0.7,1.2-1c0.4-0.4,0.8-0.7,1.1-1.1c0.4-0.4,0.7-0.8,1.1-1.2c0.3-0.4,0.7-0.8,1-1.2
						c0.3-0.4,0.6-0.8,0.9-1.3c0.3-0.4,0.6-0.9,0.9-1.3s0.6-0.9,0.8-1.3L-58,253.6l0.9,0.5c0.1,0,0.1,0.1,0.2,0.1
						c0.1,0,0.1,0.1,0.2,0.1c0.1,0,0.1,0,0.2,0.1c0.1,0,0.1,0,0.2,0c0.1,0,0.1,0,0.2,0c0.1,0,0.1,0,0.2,0c0.1,0,0.1,0,0.2,0
						c0.1,0,0.1,0,0.2,0c0.1,0,0.1,0,0.2-0.1c0.1,0,0.1,0,0.2-0.1c0.1,0,0.1-0.1,0.2-0.1c0.1,0,0.1-0.1,0.2-0.1
						c0.1,0,0.1-0.1,0.1-0.1c0,0,0.1-0.1,0.1-0.1c0,0,0.1-0.1,0.1-0.2c0-0.1,0.1-0.1,0.1-0.2l25.2-43.6c0-0.1,0.1-0.1,0.1-0.2
						c0-0.1,0.1-0.1,0.1-0.2c0-0.1,0-0.1,0.1-0.2c0-0.1,0-0.1,0-0.2c0-0.1,0-0.1,0-0.2c0-0.1,0-0.1,0-0.2c0-0.1,0-0.1,0-0.2
						c0-0.1,0-0.1,0-0.2c0-0.1,0-0.1-0.1-0.2c0-0.1,0-0.1-0.1-0.2c0-0.1-0.1-0.1-0.1-0.2c0-0.1-0.1-0.1-0.1-0.2
						c0-0.1-0.1-0.1-0.1-0.2c0,0-0.1-0.1-0.1-0.1c0,0-0.1-0.1-0.2-0.1c-0.1,0-0.1-0.1-0.2-0.1l-0.9-0.5l6-10.5l0.9,0.5
						c0.1,0,0.1,0.1,0.2,0.1c0.1,0,0.1,0.1,0.2,0.1c0.1,0,0.1,0,0.2,0.1c0.1,0,0.1,0,0.2,0c0.1,0,0.1,0,0.2,0c0.1,0,0.1,0,0.2,0
						c0.1,0,0.1,0,0.2,0c0.1,0,0.1,0,0.2,0c0.1,0,0.1,0,0.2-0.1s0.1,0,0.2-0.1c0.1,0,0.1-0.1,0.2-0.1c0.1,0,0.1-0.1,0.2-0.1
						c0.1,0,0.1-0.1,0.1-0.1c0,0,0.1-0.1,0.1-0.1c0,0,0.1-0.1,0.1-0.2c0-0.1,0.1-0.1,0.1-0.2L4,152.3c0-0.1,0.1-0.1,0.1-0.2
						c0-0.1,0.1-0.1,0.1-0.2c0-0.1,0-0.1,0.1-0.2c0-0.1,0-0.1,0-0.2c0-0.1,0-0.1,0-0.2c0-0.1,0-0.1,0-0.2c0-0.1,0-0.1,0-0.2
						c0-0.1,0-0.1,0-0.2c0-0.1,0-0.1-0.1-0.2c0-0.1,0-0.1-0.1-0.2c0-0.1-0.1-0.1-0.1-0.2c0-0.1-0.1-0.1-0.1-0.2
						c0-0.1-0.1-0.1-0.1-0.1c0,0-0.1-0.1-0.1-0.1c0,0-0.1-0.1-0.2-0.1c-0.1,0-0.1-0.1-0.2-0.1L2.4,149l13.6-23.5l0.9,0.5
						c0.1,0,0.1,0.1,0.2,0.1c0.1,0,0.1,0.1,0.2,0.1c0.1,0,0.1,0,0.2,0.1c0.1,0,0.1,0,0.2,0c0.1,0,0.1,0,0.2,0c0.1,0,0.1,0,0.2,0
						c0.1,0,0.1,0,0.2,0c0.1,0,0.1,0,0.2,0c0.1,0,0.1,0,0.2-0.1c0.1,0,0.1,0,0.2-0.1c0.1,0,0.1-0.1,0.2-0.1c0.1,0,0.1-0.1,0.2-0.1
						c0.1,0,0.1-0.1,0.1-0.1c0,0,0.1-0.1,0.1-0.1c0,0,0.1-0.1,0.1-0.2s0.1-0.1,0.1-0.2l13.8-24c0-0.1,0.1-0.1,0.1-0.2
						c0-0.1,0.1-0.1,0.1-0.2c0-0.1,0-0.1,0.1-0.2c0-0.1,0-0.1,0-0.2c0-0.1,0-0.1,0-0.2c0-0.1,0-0.1,0-0.2c0-0.1,0-0.1,0-0.2
						c0-0.1,0-0.1,0-0.2c0-0.1,0-0.1-0.1-0.2c0-0.1,0-0.1-0.1-0.2c0-0.1-0.1-0.1-0.1-0.2c0-0.1-0.1-0.1-0.1-0.2
						c0-0.1-0.1-0.1-0.1-0.1c0,0-0.1-0.1-0.1-0.1c0,0-0.1-0.1-0.2-0.1c-0.1,0-0.1-0.1-0.2-0.1l-0.9-0.5l28.5-49.4
						c0.3-0.5,0.5-0.9,0.8-1.4c0.2-0.5,0.5-0.9,0.7-1.4c0.2-0.5,0.4-1,0.6-1.4c0.2-0.5,0.4-1,0.5-1.5c0.2-0.5,0.3-1,0.5-1.5
						c0.1-0.5,0.3-1,0.4-1.5c0.1-0.5,0.2-1,0.3-1.5c0.1-0.5,0.2-1,0.2-1.6c0.1-0.5,0.1-1,0.2-1.6c0-0.5,0.1-1,0.1-1.6
						c0-0.5,0-1,0-1.6c0-0.5,0-1-0.1-1.6c0-0.5-0.1-1-0.1-1.6c-0.1-0.5-0.1-1-0.2-1.6c-0.1-0.5-0.2-1-0.3-1.5
						c-0.1-0.5-0.2-1-0.4-1.5c-0.1-0.5-0.3-1-0.4-1.5c-0.2-0.5-0.3-1-0.5-1.5c-0.2-0.5-0.4-1-0.6-1.5c-0.2-0.5-0.4-1-0.7-1.4
						c-0.2-0.5-0.5-0.9-0.7-1.4c-0.3-0.5-0.5-0.9-0.8-1.4s-0.6-0.9-0.9-1.3c-0.3-0.4-0.6-0.9-0.9-1.3c-0.3-0.4-0.6-0.8-1-1.2
						c-0.3-0.4-0.7-0.8-1-1.2c-0.4-0.4-0.7-0.8-1.1-1.1c-0.4-0.4-0.8-0.7-1.2-1.1c-0.4-0.3-0.8-0.7-1.2-1C52,7.3,51.6,7,51.2,6.7
						c-0.4-0.3-0.9-0.6-1.3-0.9C49.5,5.6,49,5.3,48.6,5l-245.9-142C-197.8-137.2-198.3-137.5-198.7-137.7z"/>
				</g>
				<g>
					<defs>
						<path id="SVGID_1_" d="M-198.7-137.7c-0.5-0.2-0.9-0.5-1.4-0.7c-0.5-0.2-1-0.4-1.4-0.6s-1-0.4-1.5-0.5c-0.5-0.2-1-0.3-1.5-0.5
							c-0.5-0.1-1-0.3-1.5-0.4c-0.5-0.1-1-0.2-1.5-0.3c-0.5-0.1-1-0.2-1.6-0.2c-0.5-0.1-1-0.1-1.6-0.2s-1-0.1-1.6-0.1
							c-0.5,0-1,0-1.6,0c-0.5,0-1,0-1.6,0.1c-0.5,0-1,0.1-1.6,0.1c-0.5,0.1-1,0.1-1.6,0.2c-0.5,0.1-1,0.2-1.5,0.3
							c-0.5,0.1-1,0.2-1.5,0.4c-0.5,0.1-1,0.3-1.5,0.4c-0.5,0.2-1,0.3-1.5,0.5c-0.5,0.2-1,0.4-1.5,0.6c-0.5,0.2-1,0.4-1.4,0.7
							c-0.5,0.2-0.9,0.5-1.4,0.7c-0.5,0.3-0.9,0.5-1.4,0.8c-0.4,0.3-0.9,0.6-1.3,0.9c-0.4,0.3-0.9,0.6-1.3,0.9
							c-0.4,0.3-0.8,0.6-1.2,1c-0.4,0.3-0.8,0.7-1.2,1c-0.4,0.4-0.8,0.7-1.1,1.1c-0.4,0.4-0.7,0.8-1.1,1.2c-0.3,0.4-0.7,0.8-1,1.2
							c-0.3,0.4-0.6,0.8-0.9,1.3c-0.3,0.4-0.6,0.9-0.9,1.3c-0.3,0.4-0.6,0.9-0.8,1.3L-299-24.9l-0.9-0.5c-0.1,0-0.1-0.1-0.2-0.1
							c-0.1,0-0.1-0.1-0.2-0.1c-0.1,0-0.1,0-0.2-0.1c-0.1,0-0.1,0-0.2,0c-0.1,0-0.1,0-0.2,0c-0.1,0-0.1,0-0.2,0c-0.1,0-0.1,0-0.2,0
							c-0.1,0-0.1,0-0.2,0c-0.1,0-0.1,0-0.2,0.1c-0.1,0-0.1,0-0.2,0.1c-0.1,0-0.1,0.1-0.2,0.1c-0.1,0-0.1,0.1-0.2,0.1
							c-0.1,0-0.1,0.1-0.1,0.1c0,0-0.1,0.1-0.1,0.1c0,0-0.1,0.1-0.1,0.2c0,0.1-0.1,0.1-0.1,0.2l-25.2,43.6c0,0.1-0.1,0.1-0.1,0.2
							c0,0.1-0.1,0.1-0.1,0.2c0,0.1,0,0.1-0.1,0.2c0,0.1,0,0.1,0,0.2c0,0.1,0,0.1,0,0.2c0,0.1,0,0.1,0,0.2c0,0.1,0,0.1,0,0.2
							c0,0.1,0,0.1,0,0.2c0,0.1,0,0.1,0.1,0.2c0,0.1,0,0.1,0.1,0.2c0,0.1,0.1,0.1,0.1,0.2c0,0.1,0.1,0.1,0.1,0.2
							c0,0.1,0.1,0.1,0.1,0.1c0,0,0.1,0.1,0.1,0.1c0,0,0.1,0.1,0.2,0.1c0.1,0,0.1,0.1,0.2,0.1l0.9,0.5l-238.9,413.8
							c-0.3,0.5-0.5,0.9-0.8,1.4c-0.2,0.5-0.5,0.9-0.7,1.4c-0.2,0.5-0.4,1-0.6,1.4c-0.2,0.5-0.4,1-0.5,1.5c-0.2,0.5-0.3,1-0.5,1.5
							c-0.1,0.5-0.3,1-0.4,1.5c-0.1,0.5-0.2,1-0.3,1.5c-0.1,0.5-0.2,1-0.2,1.6c-0.1,0.5-0.1,1-0.2,1.6s-0.1,1-0.1,1.6
							c0,0.5,0,1,0,1.6c0,0.5,0,1,0.1,1.6c0,0.5,0.1,1,0.1,1.6c0.1,0.5,0.1,1,0.2,1.6c0.1,0.5,0.2,1,0.3,1.5c0.1,0.5,0.2,1,0.4,1.5
							c0.1,0.5,0.3,1,0.4,1.5c0.2,0.5,0.3,1,0.5,1.5c0.2,0.5,0.4,1,0.6,1.5c0.2,0.5,0.4,1,0.7,1.4c0.2,0.5,0.5,0.9,0.7,1.4
							c0.3,0.5,0.5,0.9,0.8,1.4c0.3,0.4,0.6,0.9,0.9,1.3c0.3,0.4,0.6,0.9,0.9,1.3c0.3,0.4,0.6,0.8,1,1.2c0.3,0.4,0.7,0.8,1,1.2
							c0.4,0.4,0.7,0.8,1.1,1.1c0.4,0.4,0.8,0.7,1.2,1.1c0.4,0.3,0.8,0.7,1.2,1c0.4,0.3,0.8,0.6,1.3,0.9c0.4,0.3,0.9,0.6,1.3,0.9
							c0.4,0.3,0.9,0.6,1.3,0.8l245.9,142c0.5,0.3,0.9,0.5,1.4,0.8c0.5,0.2,0.9,0.5,1.4,0.7c0.5,0.2,1,0.4,1.4,0.6
							c0.5,0.2,1,0.4,1.5,0.5c0.5,0.2,1,0.3,1.5,0.5c0.5,0.1,1,0.3,1.5,0.4c0.5,0.1,1,0.2,1.5,0.3c0.5,0.1,1,0.2,1.6,0.2
							c0.5,0.1,1,0.1,1.6,0.2c0.5,0,1,0.1,1.6,0.1c0.5,0,1,0,1.6,0c0.5,0,1,0,1.6-0.1c0.5,0,1-0.1,1.6-0.1c0.5-0.1,1-0.1,1.6-0.2
							c0.5-0.1,1-0.2,1.5-0.3c0.5-0.1,1-0.2,1.5-0.4c0.5-0.1,1-0.3,1.5-0.4c0.5-0.2,1-0.3,1.5-0.5c0.5-0.2,1-0.4,1.5-0.6
							c0.5-0.2,1-0.4,1.4-0.7c0.5-0.2,0.9-0.5,1.4-0.7c0.5-0.3,0.9-0.5,1.4-0.8c0.4-0.3,0.9-0.6,1.3-0.9c0.4-0.3,0.9-0.6,1.3-0.9
							c0.4-0.3,0.8-0.6,1.2-1s0.8-0.7,1.2-1c0.4-0.4,0.8-0.7,1.1-1.1c0.4-0.4,0.7-0.8,1.1-1.2c0.3-0.4,0.7-0.8,1-1.2
							c0.3-0.4,0.6-0.8,0.9-1.3c0.3-0.4,0.6-0.9,0.9-1.3s0.6-0.9,0.8-1.3L-58,253.6l0.9,0.5c0.1,0,0.1,0.1,0.2,0.1
							c0.1,0,0.1,0.1,0.2,0.1c0.1,0,0.1,0,0.2,0.1c0.1,0,0.1,0,0.2,0c0.1,0,0.1,0,0.2,0c0.1,0,0.1,0,0.2,0c0.1,0,0.1,0,0.2,0
							c0.1,0,0.1,0,0.2,0c0.1,0,0.1,0,0.2-0.1c0.1,0,0.1,0,0.2-0.1c0.1,0,0.1-0.1,0.2-0.1c0.1,0,0.1-0.1,0.2-0.1
							c0.1,0,0.1-0.1,0.1-0.1c0,0,0.1-0.1,0.1-0.1c0,0,0.1-0.1,0.1-0.2c0-0.1,0.1-0.1,0.1-0.2l25.2-43.6c0-0.1,0.1-0.1,0.1-0.2
							c0-0.1,0.1-0.1,0.1-0.2c0-0.1,0-0.1,0.1-0.2c0-0.1,0-0.1,0-0.2c0-0.1,0-0.1,0-0.2c0-0.1,0-0.1,0-0.2c0-0.1,0-0.1,0-0.2
							c0-0.1,0-0.1,0-0.2c0-0.1,0-0.1-0.1-0.2c0-0.1,0-0.1-0.1-0.2c0-0.1-0.1-0.1-0.1-0.2c0-0.1-0.1-0.1-0.1-0.2
							c0-0.1-0.1-0.1-0.1-0.2c0,0-0.1-0.1-0.1-0.1c0,0-0.1-0.1-0.2-0.1c-0.1,0-0.1-0.1-0.2-0.1l-0.9-0.5l6-10.5l0.9,0.5
							c0.1,0,0.1,0.1,0.2,0.1c0.1,0,0.1,0.1,0.2,0.1c0.1,0,0.1,0,0.2,0.1c0.1,0,0.1,0,0.2,0c0.1,0,0.1,0,0.2,0c0.1,0,0.1,0,0.2,0
							c0.1,0,0.1,0,0.2,0c0.1,0,0.1,0,0.2,0c0.1,0,0.1,0,0.2-0.1s0.1,0,0.2-0.1c0.1,0,0.1-0.1,0.2-0.1c0.1,0,0.1-0.1,0.2-0.1
							c0.1,0,0.1-0.1,0.1-0.1c0,0,0.1-0.1,0.1-0.1c0,0,0.1-0.1,0.1-0.2c0-0.1,0.1-0.1,0.1-0.2L4,152.3c0-0.1,0.1-0.1,0.1-0.2
							c0-0.1,0.1-0.1,0.1-0.2c0-0.1,0-0.1,0.1-0.2c0-0.1,0-0.1,0-0.2c0-0.1,0-0.1,0-0.2c0-0.1,0-0.1,0-0.2c0-0.1,0-0.1,0-0.2
							c0-0.1,0-0.1,0-0.2c0-0.1,0-0.1-0.1-0.2c0-0.1,0-0.1-0.1-0.2c0-0.1-0.1-0.1-0.1-0.2c0-0.1-0.1-0.1-0.1-0.2
							c0-0.1-0.1-0.1-0.1-0.1c0,0-0.1-0.1-0.1-0.1c0,0-0.1-0.1-0.2-0.1c-0.1,0-0.1-0.1-0.2-0.1L2.4,149l13.6-23.5l0.9,0.5
							c0.1,0,0.1,0.1,0.2,0.1c0.1,0,0.1,0.1,0.2,0.1c0.1,0,0.1,0,0.2,0.1c0.1,0,0.1,0,0.2,0c0.1,0,0.1,0,0.2,0c0.1,0,0.1,0,0.2,0
							c0.1,0,0.1,0,0.2,0c0.1,0,0.1,0,0.2,0c0.1,0,0.1,0,0.2-0.1c0.1,0,0.1,0,0.2-0.1c0.1,0,0.1-0.1,0.2-0.1c0.1,0,0.1-0.1,0.2-0.1
							c0.1,0,0.1-0.1,0.1-0.1c0,0,0.1-0.1,0.1-0.1c0,0,0.1-0.1,0.1-0.2s0.1-0.1,0.1-0.2l13.8-24c0-0.1,0.1-0.1,0.1-0.2
							c0-0.1,0.1-0.1,0.1-0.2c0-0.1,0-0.1,0.1-0.2c0-0.1,0-0.1,0-0.2c0-0.1,0-0.1,0-0.2c0-0.1,0-0.1,0-0.2c0-0.1,0-0.1,0-0.2
							c0-0.1,0-0.1,0-0.2c0-0.1,0-0.1-0.1-0.2c0-0.1,0-0.1-0.1-0.2c0-0.1-0.1-0.1-0.1-0.2c0-0.1-0.1-0.1-0.1-0.2
							c0-0.1-0.1-0.1-0.1-0.1c0,0-0.1-0.1-0.1-0.1c0,0-0.1-0.1-0.2-0.1c-0.1,0-0.1-0.1-0.2-0.1l-0.9-0.5l28.5-49.4
							c0.3-0.5,0.5-0.9,0.8-1.4c0.2-0.5,0.5-0.9,0.7-1.4c0.2-0.5,0.4-1,0.6-1.4c0.2-0.5,0.4-1,0.5-1.5c0.2-0.5,0.3-1,0.5-1.5
							c0.1-0.5,0.3-1,0.4-1.5c0.1-0.5,0.2-1,0.3-1.5c0.1-0.5,0.2-1,0.2-1.6c0.1-0.5,0.1-1,0.2-1.6c0-0.5,0.1-1,0.1-1.6
							c0-0.5,0-1,0-1.6c0-0.5,0-1-0.1-1.6c0-0.5-0.1-1-0.1-1.6c-0.1-0.5-0.1-1-0.2-1.6c-0.1-0.5-0.2-1-0.3-1.5
							c-0.1-0.5-0.2-1-0.4-1.5c-0.1-0.5-0.3-1-0.4-1.5c-0.2-0.5-0.3-1-0.5-1.5c-0.2-0.5-0.4-1-0.6-1.5c-0.2-0.5-0.4-1-0.7-1.4
							c-0.2-0.5-0.5-0.9-0.7-1.4c-0.3-0.5-0.5-0.9-0.8-1.4s-0.6-0.9-0.9-1.3c-0.3-0.4-0.6-0.9-0.9-1.3c-0.3-0.4-0.6-0.8-1-1.2
							c-0.3-0.4-0.7-0.8-1-1.2c-0.4-0.4-0.7-0.8-1.1-1.1c-0.4-0.4-0.8-0.7-1.2-1.1c-0.4-0.3-0.8-0.7-1.2-1C52,7.3,51.6,7,51.2,6.7
							c-0.4-0.3-0.9-0.6-1.3-0.9C49.5,5.6,49,5.3,48.6,5l-245.9-142C-197.8-137.2-198.3-137.5-198.7-137.7z"/>
					</defs>
					<clipPath id="SVGID_2_">
						<use xlink:href="#SVGID_1_"  style="overflow:visible;"/>
					</clipPath>
					<g class="st3">
						<g>
							<path id="path_1_1_" class="st4" d="M-198.7-137.7c-0.5-0.2-0.9-0.5-1.4-0.7c-0.5-0.2-1-0.4-1.4-0.6s-1-0.4-1.5-0.5
								c-0.5-0.2-1-0.3-1.5-0.5c-0.5-0.1-1-0.3-1.5-0.4c-0.5-0.1-1-0.2-1.5-0.3c-0.5-0.1-1-0.2-1.6-0.2c-0.5-0.1-1-0.1-1.6-0.2
								s-1-0.1-1.6-0.1c-0.5,0-1,0-1.6,0c-0.5,0-1,0-1.6,0.1c-0.5,0-1,0.1-1.6,0.1c-0.5,0.1-1,0.1-1.6,0.2c-0.5,0.1-1,0.2-1.5,0.3
								c-0.5,0.1-1,0.2-1.5,0.4c-0.5,0.1-1,0.3-1.5,0.4c-0.5,0.2-1,0.3-1.5,0.5c-0.5,0.2-1,0.4-1.5,0.6c-0.5,0.2-1,0.4-1.4,0.7
								c-0.5,0.2-0.9,0.5-1.4,0.7c-0.5,0.3-0.9,0.5-1.4,0.8c-0.4,0.3-0.9,0.6-1.3,0.9c-0.4,0.3-0.9,0.6-1.3,0.9
								c-0.4,0.3-0.8,0.6-1.2,1c-0.4,0.3-0.8,0.7-1.2,1c-0.4,0.4-0.8,0.7-1.1,1.1c-0.4,0.4-0.7,0.8-1.1,1.2c-0.3,0.4-0.7,0.8-1,1.2
								c-0.3,0.4-0.6,0.8-0.9,1.3c-0.3,0.4-0.6,0.9-0.9,1.3c-0.3,0.4-0.6,0.9-0.8,1.3L-299-24.9l-0.9-0.5c-0.1,0-0.1-0.1-0.2-0.1
								c-0.1,0-0.1-0.1-0.2-0.1c-0.1,0-0.1,0-0.2-0.1c-0.1,0-0.1,0-0.2,0c-0.1,0-0.1,0-0.2,0c-0.1,0-0.1,0-0.2,0c-0.1,0-0.1,0-0.2,0
								c-0.1,0-0.1,0-0.2,0c-0.1,0-0.1,0-0.2,0.1c-0.1,0-0.1,0-0.2,0.1c-0.1,0-0.1,0.1-0.2,0.1c-0.1,0-0.1,0.1-0.2,0.1
								c-0.1,0-0.1,0.1-0.1,0.1c0,0-0.1,0.1-0.1,0.1c0,0-0.1,0.1-0.1,0.2c0,0.1-0.1,0.1-0.1,0.2l-25.2,43.6c0,0.1-0.1,0.1-0.1,0.2
								c0,0.1-0.1,0.1-0.1,0.2c0,0.1,0,0.1-0.1,0.2c0,0.1,0,0.1,0,0.2c0,0.1,0,0.1,0,0.2c0,0.1,0,0.1,0,0.2c0,0.1,0,0.1,0,0.2
								c0,0.1,0,0.1,0,0.2c0,0.1,0,0.1,0.1,0.2c0,0.1,0,0.1,0.1,0.2c0,0.1,0.1,0.1,0.1,0.2c0,0.1,0.1,0.1,0.1,0.2
								c0,0.1,0.1,0.1,0.1,0.1c0,0,0.1,0.1,0.1,0.1c0,0,0.1,0.1,0.2,0.1c0.1,0,0.1,0.1,0.2,0.1l0.9,0.5l-238.9,413.8
								c-0.3,0.5-0.5,0.9-0.8,1.4c-0.2,0.5-0.5,0.9-0.7,1.4c-0.2,0.5-0.4,1-0.6,1.4c-0.2,0.5-0.4,1-0.5,1.5c-0.2,0.5-0.3,1-0.5,1.5
								c-0.1,0.5-0.3,1-0.4,1.5c-0.1,0.5-0.2,1-0.3,1.5c-0.1,0.5-0.2,1-0.2,1.6c-0.1,0.5-0.1,1-0.2,1.6s-0.1,1-0.1,1.6
								c0,0.5,0,1,0,1.6c0,0.5,0,1,0.1,1.6c0,0.5,0.1,1,0.1,1.6c0.1,0.5,0.1,1,0.2,1.6c0.1,0.5,0.2,1,0.3,1.5c0.1,0.5,0.2,1,0.4,1.5
								c0.1,0.5,0.3,1,0.4,1.5c0.2,0.5,0.3,1,0.5,1.5c0.2,0.5,0.4,1,0.6,1.5c0.2,0.5,0.4,1,0.7,1.4c0.2,0.5,0.5,0.9,0.7,1.4
								c0.3,0.5,0.5,0.9,0.8,1.4c0.3,0.4,0.6,0.9,0.9,1.3c0.3,0.4,0.6,0.9,0.9,1.3c0.3,0.4,0.6,0.8,1,1.2c0.3,0.4,0.7,0.8,1,1.2
								c0.4,0.4,0.7,0.8,1.1,1.1c0.4,0.4,0.8,0.7,1.2,1.1c0.4,0.3,0.8,0.7,1.2,1c0.4,0.3,0.8,0.6,1.3,0.9c0.4,0.3,0.9,0.6,1.3,0.9
								c0.4,0.3,0.9,0.6,1.3,0.8l245.9,142c0.5,0.3,0.9,0.5,1.4,0.8c0.5,0.2,0.9,0.5,1.4,0.7c0.5,0.2,1,0.4,1.4,0.6
								c0.5,0.2,1,0.4,1.5,0.5c0.5,0.2,1,0.3,1.5,0.5c0.5,0.1,1,0.3,1.5,0.4c0.5,0.1,1,0.2,1.5,0.3c0.5,0.1,1,0.2,1.6,0.2
								c0.5,0.1,1,0.1,1.6,0.2c0.5,0,1,0.1,1.6,0.1c0.5,0,1,0,1.6,0c0.5,0,1,0,1.6-0.1c0.5,0,1-0.1,1.6-0.1c0.5-0.1,1-0.1,1.6-0.2
								c0.5-0.1,1-0.2,1.5-0.3c0.5-0.1,1-0.2,1.5-0.4c0.5-0.1,1-0.3,1.5-0.4c0.5-0.2,1-0.3,1.5-0.5c0.5-0.2,1-0.4,1.5-0.6
								c0.5-0.2,1-0.4,1.4-0.7c0.5-0.2,0.9-0.5,1.4-0.7c0.5-0.3,0.9-0.5,1.4-0.8c0.4-0.3,0.9-0.6,1.3-0.9c0.4-0.3,0.9-0.6,1.3-0.9
								c0.4-0.3,0.8-0.6,1.2-1s0.8-0.7,1.2-1c0.4-0.4,0.8-0.7,1.1-1.1c0.4-0.4,0.7-0.8,1.1-1.2c0.3-0.4,0.7-0.8,1-1.2
								c0.3-0.4,0.6-0.8,0.9-1.3c0.3-0.4,0.6-0.9,0.9-1.3s0.6-0.9,0.8-1.3L-58,253.6l0.9,0.5c0.1,0,0.1,0.1,0.2,0.1
								c0.1,0,0.1,0.1,0.2,0.1c0.1,0,0.1,0,0.2,0.1c0.1,0,0.1,0,0.2,0c0.1,0,0.1,0,0.2,0c0.1,0,0.1,0,0.2,0c0.1,0,0.1,0,0.2,0
								c0.1,0,0.1,0,0.2,0c0.1,0,0.1,0,0.2-0.1c0.1,0,0.1,0,0.2-0.1c0.1,0,0.1-0.1,0.2-0.1c0.1,0,0.1-0.1,0.2-0.1
								c0.1,0,0.1-0.1,0.1-0.1c0,0,0.1-0.1,0.1-0.1c0,0,0.1-0.1,0.1-0.2c0-0.1,0.1-0.1,0.1-0.2l25.2-43.6c0-0.1,0.1-0.1,0.1-0.2
								c0-0.1,0.1-0.1,0.1-0.2c0-0.1,0-0.1,0.1-0.2c0-0.1,0-0.1,0-0.2c0-0.1,0-0.1,0-0.2c0-0.1,0-0.1,0-0.2c0-0.1,0-0.1,0-0.2
								c0-0.1,0-0.1,0-0.2c0-0.1,0-0.1-0.1-0.2c0-0.1,0-0.1-0.1-0.2c0-0.1-0.1-0.1-0.1-0.2c0-0.1-0.1-0.1-0.1-0.2
								c0-0.1-0.1-0.1-0.1-0.2c0,0-0.1-0.1-0.1-0.1c0,0-0.1-0.1-0.2-0.1c-0.1,0-0.1-0.1-0.2-0.1l-0.9-0.5l6-10.5l0.9,0.5
								c0.1,0,0.1,0.1,0.2,0.1c0.1,0,0.1,0.1,0.2,0.1c0.1,0,0.1,0,0.2,0.1c0.1,0,0.1,0,0.2,0c0.1,0,0.1,0,0.2,0c0.1,0,0.1,0,0.2,0
								c0.1,0,0.1,0,0.2,0c0.1,0,0.1,0,0.2,0c0.1,0,0.1,0,0.2-0.1s0.1,0,0.2-0.1c0.1,0,0.1-0.1,0.2-0.1c0.1,0,0.1-0.1,0.2-0.1
								c0.1,0,0.1-0.1,0.1-0.1c0,0,0.1-0.1,0.1-0.1c0,0,0.1-0.1,0.1-0.2c0-0.1,0.1-0.1,0.1-0.2L4,152.3c0-0.1,0.1-0.1,0.1-0.2
								c0-0.1,0.1-0.1,0.1-0.2c0-0.1,0-0.1,0.1-0.2c0-0.1,0-0.1,0-0.2c0-0.1,0-0.1,0-0.2c0-0.1,0-0.1,0-0.2c0-0.1,0-0.1,0-0.2
								c0-0.1,0-0.1,0-0.2c0-0.1,0-0.1-0.1-0.2c0-0.1,0-0.1-0.1-0.2c0-0.1-0.1-0.1-0.1-0.2c0-0.1-0.1-0.1-0.1-0.2
								c0-0.1-0.1-0.1-0.1-0.1c0,0-0.1-0.1-0.1-0.1c0,0-0.1-0.1-0.2-0.1c-0.1,0-0.1-0.1-0.2-0.1L2.4,149l13.6-23.5l0.9,0.5
								c0.1,0,0.1,0.1,0.2,0.1c0.1,0,0.1,0.1,0.2,0.1c0.1,0,0.1,0,0.2,0.1c0.1,0,0.1,0,0.2,0c0.1,0,0.1,0,0.2,0c0.1,0,0.1,0,0.2,0
								c0.1,0,0.1,0,0.2,0c0.1,0,0.1,0,0.2,0c0.1,0,0.1,0,0.2-0.1c0.1,0,0.1,0,0.2-0.1c0.1,0,0.1-0.1,0.2-0.1c0.1,0,0.1-0.1,0.2-0.1
								c0.1,0,0.1-0.1,0.1-0.1c0,0,0.1-0.1,0.1-0.1c0,0,0.1-0.1,0.1-0.2s0.1-0.1,0.1-0.2l13.8-24c0-0.1,0.1-0.1,0.1-0.2
								c0-0.1,0.1-0.1,0.1-0.2c0-0.1,0-0.1,0.1-0.2c0-0.1,0-0.1,0-0.2c0-0.1,0-0.1,0-0.2c0-0.1,0-0.1,0-0.2c0-0.1,0-0.1,0-0.2
								c0-0.1,0-0.1,0-0.2c0-0.1,0-0.1-0.1-0.2c0-0.1,0-0.1-0.1-0.2c0-0.1-0.1-0.1-0.1-0.2c0-0.1-0.1-0.1-0.1-0.2
								c0-0.1-0.1-0.1-0.1-0.1c0,0-0.1-0.1-0.1-0.1c0,0-0.1-0.1-0.2-0.1c-0.1,0-0.1-0.1-0.2-0.1l-0.9-0.5l28.5-49.4
								c0.3-0.5,0.5-0.9,0.8-1.4c0.2-0.5,0.5-0.9,0.7-1.4c0.2-0.5,0.4-1,0.6-1.4c0.2-0.5,0.4-1,0.5-1.5c0.2-0.5,0.3-1,0.5-1.5
								c0.1-0.5,0.3-1,0.4-1.5c0.1-0.5,0.2-1,0.3-1.5c0.1-0.5,0.2-1,0.2-1.6c0.1-0.5,0.1-1,0.2-1.6c0-0.5,0.1-1,0.1-1.6
								c0-0.5,0-1,0-1.6c0-0.5,0-1-0.1-1.6c0-0.5-0.1-1-0.1-1.6c-0.1-0.5-0.1-1-0.2-1.6c-0.1-0.5-0.2-1-0.3-1.5
								c-0.1-0.5-0.2-1-0.4-1.5c-0.1-0.5-0.3-1-0.4-1.5c-0.2-0.5-0.3-1-0.5-1.5c-0.2-0.5-0.4-1-0.6-1.5c-0.2-0.5-0.4-1-0.7-1.4
								c-0.2-0.5-0.5-0.9-0.7-1.4c-0.3-0.5-0.5-0.9-0.8-1.4s-0.6-0.9-0.9-1.3c-0.3-0.4-0.6-0.9-0.9-1.3c-0.3-0.4-0.6-0.8-1-1.2
								c-0.3-0.4-0.7-0.8-1-1.2c-0.4-0.4-0.7-0.8-1.1-1.1c-0.4-0.4-0.8-0.7-1.2-1.1c-0.4-0.3-0.8-0.7-1.2-1C52,7.3,51.6,7,51.2,6.7
								c-0.4-0.3-0.9-0.6-1.3-0.9C49.5,5.6,49,5.3,48.6,5l-245.9-142C-197.8-137.2-198.3-137.5-198.7-137.7z"/>
						</g>
					</g>
				</g>
			</g>
		</g>
		<path id="Button" class="st5" d="M-382.4,522.9c7.6-13.2,3.1-30-10.1-37.6s-30-3.1-37.6,10.1c-7.6,13.2-3.1,30,10.1,37.6
			C-406.8,540.5-390,536-382.4,522.9z"/>
		<g id="food_app_-_ar_x2_3x" transform="translate(25.89993 86.32278)">
			<g id="Mask">
				<g>
					<path id="path_2" class="st5" d="M-15.2-4.1c0.1,0.1,0.2,0.2,0.3,0.2c0.1,0.1,0.2,0.2,0.3,0.3c0.1,0.1,0.2,0.2,0.3,0.3
						c0.1,0.1,0.2,0.2,0.2,0.3c0.1,0.1,0.1,0.2,0.2,0.3c0.1,0.1,0.1,0.2,0.2,0.4c0,0.1,0.1,0.2,0.1,0.4c0,0.1,0.1,0.3,0.1,0.4
						c0,0.1,0,0.3,0,0.4c0,0.1,0,0.3,0,0.4c0,0.1,0,0.3,0,0.4c0,0.1,0,0.3-0.1,0.4c0,0.1-0.1,0.3-0.1,0.4c0,0.1-0.1,0.2-0.1,0.4
						c-0.1,0.1-0.1,0.2-0.2,0.3l-265.4,459.8c-0.1,0.1-0.1,0.2-0.2,0.3c-0.1,0.1-0.2,0.2-0.2,0.3c-0.1,0.1-0.2,0.2-0.3,0.3
						c-0.1,0.1-0.2,0.2-0.3,0.3c-0.1,0.1-0.2,0.2-0.3,0.2c-0.1,0.1-0.2,0.1-0.3,0.2c-0.1,0.1-0.2,0.1-0.4,0.2
						c-0.1,0-0.2,0.1-0.4,0.1c-0.1,0-0.3,0.1-0.4,0.1c-0.1,0-0.3,0-0.4,0c-0.1,0-0.3,0-0.4,0c-0.1,0-0.3,0-0.4,0s-0.3,0-0.4-0.1
						c-0.1,0-0.3-0.1-0.4-0.1c-0.1,0-0.2-0.1-0.4-0.1c-0.1-0.1-0.2-0.1-0.3-0.2l-253.9-146.6c-0.1-0.1-0.2-0.1-0.3-0.2
						c-0.1-0.1-0.2-0.2-0.3-0.2c-0.1-0.1-0.2-0.2-0.3-0.3c-0.1-0.1-0.2-0.2-0.3-0.3c-0.1-0.1-0.2-0.2-0.2-0.3
						c-0.1-0.1-0.1-0.2-0.2-0.3c-0.1-0.1-0.1-0.2-0.2-0.4c0-0.1-0.1-0.2-0.1-0.4c0-0.1-0.1-0.3-0.1-0.4c0-0.1,0-0.3,0-0.4
						c0-0.1,0-0.3,0-0.4c0-0.1,0-0.3,0-0.4c0-0.1,0-0.3,0.1-0.4c0-0.1,0.1-0.3,0.1-0.4c0-0.1,0.1-0.2,0.1-0.4
						c0.1-0.1,0.1-0.2,0.2-0.3l265.4-459.8c0.1-0.1,0.1-0.2,0.2-0.3c0.1-0.1,0.2-0.2,0.2-0.3c0.1-0.1,0.2-0.2,0.3-0.3
						c0.1-0.1,0.2-0.2,0.3-0.3c0.1-0.1,0.2-0.2,0.3-0.2c0.1-0.1,0.2-0.1,0.3-0.2c0.1-0.1,0.2-0.1,0.4-0.2s0.2-0.1,0.4-0.1
						c0.1,0,0.3-0.1,0.4-0.1c0.1,0,0.3,0,0.4,0c0.1,0,0.3,0,0.4,0c0.1,0,0.3,0,0.4,0c0.1,0,0.3,0,0.4,0.1c0.1,0,0.3,0.1,0.4,0.1
						c0.1,0,0.2,0.1,0.4,0.1c0.1,0.1,0.2,0.1,0.3,0.2L-15.5-4.3C-15.4-4.2-15.3-4.2-15.2-4.1z"/>
				</g>
				<g>
					<defs>
						<path id="SVGID_3_" d="M-15.2-4.1c0.1,0.1,0.2,0.2,0.3,0.2c0.1,0.1,0.2,0.2,0.3,0.3c0.1,0.1,0.2,0.2,0.3,0.3
							c0.1,0.1,0.2,0.2,0.2,0.3c0.1,0.1,0.1,0.2,0.2,0.3c0.1,0.1,0.1,0.2,0.2,0.4c0,0.1,0.1,0.2,0.1,0.4c0,0.1,0.1,0.3,0.1,0.4
							c0,0.1,0,0.3,0,0.4c0,0.1,0,0.3,0,0.4c0,0.1,0,0.3,0,0.4c0,0.1,0,0.3-0.1,0.4c0,0.1-0.1,0.3-0.1,0.4c0,0.1-0.1,0.2-0.1,0.4
							c-0.1,0.1-0.1,0.2-0.2,0.3l-265.4,459.8c-0.1,0.1-0.1,0.2-0.2,0.3c-0.1,0.1-0.2,0.2-0.2,0.3c-0.1,0.1-0.2,0.2-0.3,0.3
							c-0.1,0.1-0.2,0.2-0.3,0.3c-0.1,0.1-0.2,0.2-0.3,0.2c-0.1,0.1-0.2,0.1-0.3,0.2c-0.1,0.1-0.2,0.1-0.4,0.2
							c-0.1,0-0.2,0.1-0.4,0.1c-0.1,0-0.3,0.1-0.4,0.1c-0.1,0-0.3,0-0.4,0c-0.1,0-0.3,0-0.4,0c-0.1,0-0.3,0-0.4,0s-0.3,0-0.4-0.1
							c-0.1,0-0.3-0.1-0.4-0.1c-0.1,0-0.2-0.1-0.4-0.1c-0.1-0.1-0.2-0.1-0.3-0.2l-253.9-146.6c-0.1-0.1-0.2-0.1-0.3-0.2
							c-0.1-0.1-0.2-0.2-0.3-0.2c-0.1-0.1-0.2-0.2-0.3-0.3c-0.1-0.1-0.2-0.2-0.3-0.3c-0.1-0.1-0.2-0.2-0.2-0.3
							c-0.1-0.1-0.1-0.2-0.2-0.3c-0.1-0.1-0.1-0.2-0.2-0.4c0-0.1-0.1-0.2-0.1-0.4c0-0.1-0.1-0.3-0.1-0.4c0-0.1,0-0.3,0-0.4
							c0-0.1,0-0.3,0-0.4c0-0.1,0-0.3,0-0.4c0-0.1,0-0.3,0.1-0.4c0-0.1,0.1-0.3,0.1-0.4c0-0.1,0.1-0.2,0.1-0.4
							c0.1-0.1,0.1-0.2,0.2-0.3l265.4-459.8c0.1-0.1,0.1-0.2,0.2-0.3c0.1-0.1,0.2-0.2,0.2-0.3c0.1-0.1,0.2-0.2,0.3-0.3
							c0.1-0.1,0.2-0.2,0.3-0.3c0.1-0.1,0.2-0.2,0.3-0.2c0.1-0.1,0.2-0.1,0.3-0.2c0.1-0.1,0.2-0.1,0.4-0.2s0.2-0.1,0.4-0.1
							c0.1,0,0.3-0.1,0.4-0.1c0.1,0,0.3,0,0.4,0c0.1,0,0.3,0,0.4,0c0.1,0,0.3,0,0.4,0c0.1,0,0.3,0,0.4,0.1c0.1,0,0.3,0.1,0.4,0.1
							c0.1,0,0.2,0.1,0.4,0.1c0.1,0.1,0.2,0.1,0.3,0.2L-15.5-4.3C-15.4-4.2-15.3-4.2-15.2-4.1z"/>
					</defs>
					<clipPath id="SVGID_4_">
						<use xlink:href="#SVGID_3_"  style="overflow:visible;"/>
					</clipPath>
					<g class="st6">
						<g>
							<path id="path_2_1_" class="st7" d="M-15.2-4.1c0.1,0.1,0.2,0.2,0.3,0.2c0.1,0.1,0.2,0.2,0.3,0.3c0.1,0.1,0.2,0.2,0.3,0.3
								c0.1,0.1,0.2,0.2,0.2,0.3c0.1,0.1,0.1,0.2,0.2,0.3c0.1,0.1,0.1,0.2,0.2,0.4c0,0.1,0.1,0.2,0.1,0.4c0,0.1,0.1,0.3,0.1,0.4
								c0,0.1,0,0.3,0,0.4c0,0.1,0,0.3,0,0.4c0,0.1,0,0.3,0,0.4c0,0.1,0,0.3-0.1,0.4c0,0.1-0.1,0.3-0.1,0.4c0,0.1-0.1,0.2-0.1,0.4
								c-0.1,0.1-0.1,0.2-0.2,0.3l-265.4,459.8c-0.1,0.1-0.1,0.2-0.2,0.3c-0.1,0.1-0.2,0.2-0.2,0.3c-0.1,0.1-0.2,0.2-0.3,0.3
								c-0.1,0.1-0.2,0.2-0.3,0.3c-0.1,0.1-0.2,0.2-0.3,0.2c-0.1,0.1-0.2,0.1-0.3,0.2c-0.1,0.1-0.2,0.1-0.4,0.2
								c-0.1,0-0.2,0.1-0.4,0.1c-0.1,0-0.3,0.1-0.4,0.1c-0.1,0-0.3,0-0.4,0c-0.1,0-0.3,0-0.4,0c-0.1,0-0.3,0-0.4,0s-0.3,0-0.4-0.1
								c-0.1,0-0.3-0.1-0.4-0.1c-0.1,0-0.2-0.1-0.4-0.1c-0.1-0.1-0.2-0.1-0.3-0.2l-253.9-146.6c-0.1-0.1-0.2-0.1-0.3-0.2
								c-0.1-0.1-0.2-0.2-0.3-0.2c-0.1-0.1-0.2-0.2-0.3-0.3c-0.1-0.1-0.2-0.2-0.3-0.3c-0.1-0.1-0.2-0.2-0.2-0.3
								c-0.1-0.1-0.1-0.2-0.2-0.3c-0.1-0.1-0.1-0.2-0.2-0.4c0-0.1-0.1-0.2-0.1-0.4c0-0.1-0.1-0.3-0.1-0.4c0-0.1,0-0.3,0-0.4
								c0-0.1,0-0.3,0-0.4c0-0.1,0-0.3,0-0.4c0-0.1,0-0.3,0.1-0.4c0-0.1,0.1-0.3,0.1-0.4c0-0.1,0.1-0.2,0.1-0.4
								c0.1-0.1,0.1-0.2,0.2-0.3l265.4-459.8c0.1-0.1,0.1-0.2,0.2-0.3c0.1-0.1,0.2-0.2,0.2-0.3c0.1-0.1,0.2-0.2,0.3-0.3
								c0.1-0.1,0.2-0.2,0.3-0.3c0.1-0.1,0.2-0.2,0.3-0.2c0.1-0.1,0.2-0.1,0.3-0.2c0.1-0.1,0.2-0.1,0.4-0.2s0.2-0.1,0.4-0.1
								c0.1,0,0.3-0.1,0.4-0.1c0.1,0,0.3,0,0.4,0c0.1,0,0.3,0,0.4,0c0.1,0,0.3,0,0.4,0c0.1,0,0.3,0,0.4,0.1c0.1,0,0.3,0.1,0.4,0.1
								c0.1,0,0.2,0.1,0.4,0.1c0.1,0.1,0.2,0.1,0.3,0.2L-15.5-4.3C-15.4-4.2-15.3-4.2-15.2-4.1z"/>
						</g>
					</g>
				</g>
			</g>
			<g>
				<defs>
					<path id="SVGID_5_" d="M-15.2-4.1c0.1,0.1,0.2,0.2,0.3,0.2c0.1,0.1,0.2,0.2,0.3,0.3c0.1,0.1,0.2,0.2,0.3,0.3
						c0.1,0.1,0.2,0.2,0.2,0.3c0.1,0.1,0.1,0.2,0.2,0.3c0.1,0.1,0.1,0.2,0.2,0.4c0,0.1,0.1,0.2,0.1,0.4c0,0.1,0.1,0.3,0.1,0.4
						c0,0.1,0,0.3,0,0.4c0,0.1,0,0.3,0,0.4c0,0.1,0,0.3,0,0.4c0,0.1,0,0.3-0.1,0.4c0,0.1-0.1,0.3-0.1,0.4c0,0.1-0.1,0.2-0.1,0.4
						c-0.1,0.1-0.1,0.2-0.2,0.3l-265.4,459.8c-0.1,0.1-0.1,0.2-0.2,0.3c-0.1,0.1-0.2,0.2-0.2,0.3c-0.1,0.1-0.2,0.2-0.3,0.3
						c-0.1,0.1-0.2,0.2-0.3,0.3c-0.1,0.1-0.2,0.2-0.3,0.2c-0.1,0.1-0.2,0.1-0.3,0.2c-0.1,0.1-0.2,0.1-0.4,0.2
						c-0.1,0-0.2,0.1-0.4,0.1c-0.1,0-0.3,0.1-0.4,0.1c-0.1,0-0.3,0-0.4,0c-0.1,0-0.3,0-0.4,0c-0.1,0-0.3,0-0.4,0s-0.3,0-0.4-0.1
						c-0.1,0-0.3-0.1-0.4-0.1c-0.1,0-0.2-0.1-0.4-0.1c-0.1-0.1-0.2-0.1-0.3-0.2l-253.9-146.6c-0.1-0.1-0.2-0.1-0.3-0.2
						c-0.1-0.1-0.2-0.2-0.3-0.2c-0.1-0.1-0.2-0.2-0.3-0.3c-0.1-0.1-0.2-0.2-0.3-0.3c-0.1-0.1-0.2-0.2-0.2-0.3
						c-0.1-0.1-0.1-0.2-0.2-0.3c-0.1-0.1-0.1-0.2-0.2-0.4c0-0.1-0.1-0.2-0.1-0.4c0-0.1-0.1-0.3-0.1-0.4c0-0.1,0-0.3,0-0.4
						c0-0.1,0-0.3,0-0.4c0-0.1,0-0.3,0-0.4c0-0.1,0-0.3,0.1-0.4c0-0.1,0.1-0.3,0.1-0.4c0-0.1,0.1-0.2,0.1-0.4
						c0.1-0.1,0.1-0.2,0.2-0.3l265.4-459.8c0.1-0.1,0.1-0.2,0.2-0.3c0.1-0.1,0.2-0.2,0.2-0.3c0.1-0.1,0.2-0.2,0.3-0.3
						c0.1-0.1,0.2-0.2,0.3-0.3c0.1-0.1,0.2-0.2,0.3-0.2c0.1-0.1,0.2-0.1,0.3-0.2c0.1-0.1,0.2-0.1,0.4-0.2s0.2-0.1,0.4-0.1
						c0.1,0,0.3-0.1,0.4-0.1c0.1,0,0.3,0,0.4,0c0.1,0,0.3,0,0.4,0c0.1,0,0.3,0,0.4,0c0.1,0,0.3,0,0.4,0.1c0.1,0,0.3,0.1,0.4,0.1
						c0.1,0,0.2,0.1,0.4,0.1c0.1,0.1,0.2,0.1,0.3,0.2L-15.5-4.3C-15.4-4.2-15.3-4.2-15.2-4.1z"/>
				</defs>
				<clipPath id="SVGID_6_">
					<use xlink:href="#SVGID_5_"  style="overflow:visible;"/>
				</clipPath>
				<g class="st8">
					<g transform="matrix(0.5071225 0 0 0.5071225 -374 -245)">
						
							<image style="overflow:visible;enable-background:new    ;" width="2808" height="2106" id="img_1" xlink:href="15E341A7.png"  transform="matrix(-0.4392 -0.2536 -0.2536 0.4392 434.7137 -27.2815)">
						</image>
					</g>
					<g transform="matrix(0.693125 0 0 0.6925 -586.8105 -107.8434)" class="st9">
						
							<image style="overflow:visible;enable-background:new    ;" width="1600" height="1200" id="img_2" xlink:href="15E341A5.png"  transform="matrix(-0.6003 -0.3466 -0.3462 0.5997 550.4347 197.9048)">
						</image>
					</g>
				</g>
				<g transform="matrix(1 0 0 1 0 0)" class="st8">
					
						<image style="overflow:visible;" width="1079" height="1847" xlink:href="15E341AB.jpg"  transform="matrix(0.2472 0.1445 -0.1508 0.2579 -273.0911 -162.17)">
					</image>
				</g>
			</g>
		</g>
	</g>
	<g id="iPhone_2_" transform="matrix(0.9659258 -0.258819 0.258819 0.9659258 22 195.916)" class="st9">
		<g class="st10">
			<path id="Shadow_1_" class="st1" d="M528.5,855.3l-278.9-161l70.5-122.1l278.9,161L528.5,855.3z"/>
		</g>
		<g class="st10">
			<g id="iPhone_1_">
				<g>
					<path id="path_3" class="st2" d="M623.1,81.8c-0.5-0.2-0.9-0.5-1.4-0.7c-0.5-0.2-1-0.4-1.4-0.6c-0.5-0.2-1-0.4-1.5-0.5
						c-0.5-0.2-1-0.3-1.5-0.5s-1-0.3-1.5-0.4c-0.5-0.1-1-0.2-1.5-0.3c-0.5-0.1-1-0.2-1.6-0.2c-0.5-0.1-1-0.1-1.6-0.2
						c-0.5,0-1-0.1-1.6-0.1c-0.5,0-1,0-1.6,0s-1,0-1.6,0.1c-0.5,0-1,0.1-1.6,0.1c-0.5,0.1-1,0.1-1.6,0.2s-1,0.2-1.5,0.3
						c-0.5,0.1-1,0.2-1.5,0.4c-0.5,0.1-1,0.3-1.5,0.4c-0.5,0.2-1,0.3-1.5,0.5c-0.5,0.2-1,0.4-1.5,0.6c-0.5,0.2-1,0.4-1.4,0.7
						c-0.5,0.2-0.9,0.5-1.4,0.7c-0.5,0.3-0.9,0.5-1.4,0.8c-0.4,0.3-0.9,0.6-1.3,0.9c-0.4,0.3-0.9,0.6-1.3,0.9
						c-0.4,0.3-0.8,0.6-1.2,1c-0.4,0.3-0.8,0.7-1.2,1c-0.4,0.4-0.8,0.7-1.1,1.1s-0.7,0.8-1.1,1.2c-0.3,0.4-0.7,0.8-1,1.2
						c-0.3,0.4-0.6,0.8-0.9,1.3c-0.3,0.4-0.6,0.9-0.9,1.3c-0.3,0.4-0.6,0.9-0.8,1.3l-58.6,101.6l-0.9-0.5c-0.1,0-0.1-0.1-0.2-0.1
						c-0.1,0-0.1-0.1-0.2-0.1c-0.1,0-0.1,0-0.2-0.1c-0.1,0-0.1,0-0.2,0c-0.1,0-0.1,0-0.2,0c-0.1,0-0.1,0-0.2,0c-0.1,0-0.1,0-0.2,0
						c-0.1,0-0.1,0-0.2,0c-0.1,0-0.1,0-0.2,0.1c-0.1,0-0.1,0-0.2,0.1c-0.1,0-0.1,0.1-0.2,0.1c-0.1,0-0.1,0.1-0.2,0.1
						c-0.1,0-0.1,0.1-0.1,0.1c0,0-0.1,0.1-0.1,0.1c0,0-0.1,0.1-0.1,0.2c0,0.1-0.1,0.1-0.1,0.2l-25.4,44c0,0.1-0.1,0.1-0.1,0.2
						c0,0.1-0.1,0.1-0.1,0.2c0,0.1,0,0.1-0.1,0.2c0,0.1,0,0.1,0,0.2c0,0.1,0,0.1,0,0.2c0,0.1,0,0.1,0,0.2c0,0.1,0,0.1,0,0.2
						c0,0.1,0,0.1,0,0.2c0,0.1,0,0.1,0.1,0.2c0,0.1,0,0.1,0.1,0.2c0,0.1,0.1,0.1,0.1,0.2c0,0.1,0.1,0.1,0.1,0.2
						c0,0.1,0.1,0.1,0.1,0.1c0,0,0.1,0.1,0.1,0.1c0,0,0.1,0.1,0.2,0.1c0.1,0,0.1,0.1,0.2,0.1l0.9,0.5L253.3,661.5
						c-0.3,0.5-0.5,0.9-0.8,1.4c-0.2,0.5-0.5,0.9-0.7,1.4c-0.2,0.5-0.4,1-0.6,1.4c-0.2,0.5-0.4,1-0.5,1.5c-0.2,0.5-0.3,1-0.5,1.5
						s-0.3,1-0.4,1.5c-0.1,0.5-0.2,1-0.3,1.5c-0.1,0.5-0.2,1-0.2,1.6c-0.1,0.5-0.1,1-0.2,1.6c0,0.5-0.1,1-0.1,1.6c0,0.5,0,1,0,1.6
						c0,0.5,0,1,0.1,1.6c0,0.5,0.1,1,0.1,1.6c0.1,0.5,0.1,1,0.2,1.6c0.1,0.5,0.2,1,0.3,1.5c0.1,0.5,0.2,1,0.4,1.5
						c0.1,0.5,0.3,1,0.4,1.5c0.2,0.5,0.3,1,0.5,1.5c0.2,0.5,0.4,1,0.6,1.5c0.2,0.5,0.4,1,0.7,1.4c0.2,0.5,0.5,0.9,0.7,1.4
						c0.3,0.5,0.5,0.9,0.8,1.4c0.3,0.4,0.6,0.9,0.9,1.3c0.3,0.4,0.6,0.9,0.9,1.3c0.3,0.4,0.6,0.8,1,1.2c0.3,0.4,0.7,0.8,1,1.2
						c0.4,0.4,0.7,0.8,1.1,1.1c0.4,0.4,0.8,0.7,1.2,1.1c0.4,0.3,0.8,0.7,1.2,1c0.4,0.3,0.8,0.6,1.3,0.9c0.4,0.3,0.9,0.6,1.3,0.9
						c0.4,0.3,0.9,0.6,1.3,0.8l249.3,143.9c0.5,0.3,0.9,0.5,1.4,0.8c0.5,0.2,0.9,0.5,1.4,0.7c0.5,0.2,1,0.4,1.4,0.6
						c0.5,0.2,1,0.4,1.5,0.5c0.5,0.2,1,0.3,1.5,0.5c0.5,0.1,1,0.3,1.5,0.4c0.5,0.1,1,0.2,1.5,0.3c0.5,0.1,1,0.2,1.6,0.2
						c0.5,0.1,1,0.1,1.6,0.2c0.5,0,1,0.1,1.6,0.1c0.5,0,1,0,1.6,0c0.5,0,1,0,1.6-0.1c0.5,0,1-0.1,1.6-0.1c0.5-0.1,1-0.1,1.6-0.2
						c0.5-0.1,1-0.2,1.5-0.3c0.5-0.1,1-0.2,1.5-0.4c0.5-0.1,1-0.3,1.5-0.4c0.5-0.2,1-0.3,1.5-0.5c0.5-0.2,1-0.4,1.5-0.6
						c0.5-0.2,1-0.4,1.4-0.7c0.5-0.2,0.9-0.5,1.4-0.7c0.5-0.3,0.9-0.5,1.4-0.8c0.4-0.3,0.9-0.6,1.3-0.9c0.4-0.3,0.9-0.6,1.3-0.9
						c0.4-0.3,0.8-0.6,1.2-1s0.8-0.7,1.2-1c0.4-0.4,0.8-0.7,1.1-1.1c0.4-0.4,0.7-0.8,1.1-1.2c0.3-0.4,0.7-0.8,1-1.2
						c0.3-0.4,0.6-0.8,0.9-1.3c0.3-0.4,0.6-0.9,0.9-1.3c0.3-0.4,0.6-0.9,0.8-1.3L766,477.3l0.9,0.5c0.1,0,0.1,0.1,0.2,0.1
						c0.1,0,0.1,0.1,0.2,0.1c0.1,0,0.1,0,0.2,0.1c0.1,0,0.1,0,0.2,0c0.1,0,0.1,0,0.2,0c0.1,0,0.1,0,0.2,0c0.1,0,0.1,0,0.2,0
						c0.1,0,0.1,0,0.2,0c0.1,0,0.1,0,0.2-0.1c0.1,0,0.1,0,0.2-0.1s0.1-0.1,0.2-0.1c0.1,0,0.1-0.1,0.2-0.1c0.1,0,0.1-0.1,0.1-0.1
						c0,0,0.1-0.1,0.1-0.1c0,0,0.1-0.1,0.1-0.2c0-0.1,0.1-0.1,0.1-0.2l25.4-44c0-0.1,0.1-0.1,0.1-0.2c0-0.1,0.1-0.1,0.1-0.2
						c0-0.1,0-0.1,0.1-0.2c0-0.1,0-0.1,0-0.2c0-0.1,0-0.1,0-0.2c0-0.1,0-0.1,0-0.2c0-0.1,0-0.1,0-0.2c0-0.1,0-0.1,0-0.2
						c0-0.1,0-0.1-0.1-0.2c0-0.1,0-0.1-0.1-0.2c0-0.1-0.1-0.1-0.1-0.2c0-0.1-0.1-0.1-0.1-0.2c0-0.1-0.1-0.1-0.1-0.1
						c0,0-0.1-0.1-0.1-0.1c0,0-0.1-0.1-0.2-0.1s-0.1-0.1-0.2-0.1l-0.9-0.5l6.1-10.6l0.9,0.5c0.1,0,0.1,0.1,0.2,0.1
						c0.1,0,0.1,0.1,0.2,0.1c0.1,0,0.1,0,0.2,0.1c0.1,0,0.1,0,0.2,0c0.1,0,0.1,0,0.2,0c0.1,0,0.1,0,0.2,0c0.1,0,0.1,0,0.2,0
						c0.1,0,0.1,0,0.2,0c0.1,0,0.1,0,0.2-0.1c0.1,0,0.1,0,0.2-0.1c0.1,0,0.1-0.1,0.2-0.1c0.1,0,0.1-0.1,0.2-0.1
						c0.1,0,0.1-0.1,0.1-0.1c0,0,0.1-0.1,0.1-0.1c0,0,0.1-0.1,0.1-0.2c0-0.1,0.1-0.1,0.1-0.2l25.4-44c0-0.1,0.1-0.1,0.1-0.2
						c0-0.1,0.1-0.1,0.1-0.2c0-0.1,0-0.1,0.1-0.2c0-0.1,0-0.1,0-0.2c0-0.1,0-0.1,0-0.2c0-0.1,0-0.1,0-0.2c0-0.1,0-0.1,0-0.2
						c0-0.1,0-0.1,0-0.2c0-0.1,0-0.1-0.1-0.2c0-0.1,0-0.1-0.1-0.2c0-0.1-0.1-0.1-0.1-0.2s-0.1-0.1-0.1-0.2c0-0.1-0.1-0.1-0.1-0.1
						c0,0-0.1-0.1-0.1-0.1s-0.1-0.1-0.2-0.1c-0.1,0-0.1-0.1-0.2-0.1l-0.9-0.5l13.7-23.7l0.9,0.5c0.1,0,0.1,0.1,0.2,0.1
						c0.1,0,0.1,0.1,0.2,0.1c0.1,0,0.1,0,0.2,0.1c0.1,0,0.1,0,0.2,0c0.1,0,0.1,0,0.2,0c0.1,0,0.1,0,0.2,0c0.1,0,0.1,0,0.2,0
						c0.1,0,0.1,0,0.2,0c0.1,0,0.1,0,0.2-0.1c0.1,0,0.1,0,0.2-0.1c0.1,0,0.1-0.1,0.2-0.1c0.1,0,0.1-0.1,0.2-0.1
						c0.1,0,0.1-0.1,0.1-0.1s0.1-0.1,0.1-0.1c0,0,0.1-0.1,0.1-0.2c0-0.1,0.1-0.1,0.1-0.2l14-24.2c0-0.1,0.1-0.1,0.1-0.2
						c0-0.1,0.1-0.1,0.1-0.2c0-0.1,0-0.1,0.1-0.2c0-0.1,0-0.1,0-0.2c0-0.1,0-0.1,0-0.2s0-0.1,0-0.2c0-0.1,0-0.1,0-0.2
						c0-0.1,0-0.1,0-0.2c0-0.1,0-0.1-0.1-0.2c0-0.1,0-0.1-0.1-0.2c0-0.1-0.1-0.1-0.1-0.2c0-0.1-0.1-0.1-0.1-0.2
						c0-0.1-0.1-0.1-0.1-0.1c0,0-0.1-0.1-0.1-0.1c0,0-0.1-0.1-0.2-0.1c-0.1,0-0.1-0.1-0.2-0.1l-0.9-0.5l28.9-50.1
						c0.3-0.5,0.5-0.9,0.8-1.4c0.2-0.5,0.5-0.9,0.7-1.4c0.2-0.5,0.4-1,0.6-1.4c0.2-0.5,0.4-1,0.5-1.5s0.3-1,0.5-1.5
						c0.1-0.5,0.3-1,0.4-1.5c0.1-0.5,0.2-1,0.3-1.5c0.1-0.5,0.2-1,0.2-1.6s0.1-1,0.2-1.6c0-0.5,0.1-1,0.1-1.6s0-1,0-1.6
						c0-0.5,0-1-0.1-1.6c0-0.5-0.1-1-0.1-1.6c-0.1-0.5-0.1-1-0.2-1.6c-0.1-0.5-0.2-1-0.3-1.5c-0.1-0.5-0.2-1-0.4-1.5
						c-0.1-0.5-0.3-1-0.4-1.5c-0.2-0.5-0.3-1-0.5-1.5c-0.2-0.5-0.4-1-0.6-1.5c-0.2-0.5-0.4-1-0.7-1.4c-0.2-0.5-0.5-0.9-0.7-1.4
						c-0.3-0.5-0.5-0.9-0.8-1.4c-0.3-0.4-0.6-0.9-0.9-1.3c-0.3-0.4-0.6-0.9-0.9-1.3c-0.3-0.4-0.6-0.8-1-1.2c-0.3-0.4-0.7-0.8-1-1.2
						c-0.4-0.4-0.7-0.8-1.1-1.1c-0.4-0.4-0.8-0.7-1.2-1.1c-0.4-0.3-0.8-0.7-1.2-1c-0.4-0.3-0.8-0.6-1.3-0.9
						c-0.4-0.3-0.9-0.6-1.3-0.9c-0.4-0.3-0.9-0.6-1.3-0.8L624.5,82.6C624.1,82.3,623.6,82.1,623.1,81.8z"/>
				</g>
				<g>
					<defs>
						<path id="SVGID_7_" d="M623.1,81.8c-0.5-0.2-0.9-0.5-1.4-0.7c-0.5-0.2-1-0.4-1.4-0.6c-0.5-0.2-1-0.4-1.5-0.5
							c-0.5-0.2-1-0.3-1.5-0.5s-1-0.3-1.5-0.4c-0.5-0.1-1-0.2-1.5-0.3c-0.5-0.1-1-0.2-1.6-0.2c-0.5-0.1-1-0.1-1.6-0.2
							c-0.5,0-1-0.1-1.6-0.1c-0.5,0-1,0-1.6,0s-1,0-1.6,0.1c-0.5,0-1,0.1-1.6,0.1c-0.5,0.1-1,0.1-1.6,0.2s-1,0.2-1.5,0.3
							c-0.5,0.1-1,0.2-1.5,0.4c-0.5,0.1-1,0.3-1.5,0.4c-0.5,0.2-1,0.3-1.5,0.5c-0.5,0.2-1,0.4-1.5,0.6c-0.5,0.2-1,0.4-1.4,0.7
							c-0.5,0.2-0.9,0.5-1.4,0.7c-0.5,0.3-0.9,0.5-1.4,0.8c-0.4,0.3-0.9,0.6-1.3,0.9c-0.4,0.3-0.9,0.6-1.3,0.9
							c-0.4,0.3-0.8,0.6-1.2,1c-0.4,0.3-0.8,0.7-1.2,1c-0.4,0.4-0.8,0.7-1.1,1.1s-0.7,0.8-1.1,1.2c-0.3,0.4-0.7,0.8-1,1.2
							c-0.3,0.4-0.6,0.8-0.9,1.3c-0.3,0.4-0.6,0.9-0.9,1.3c-0.3,0.4-0.6,0.9-0.8,1.3l-58.6,101.6l-0.9-0.5c-0.1,0-0.1-0.1-0.2-0.1
							c-0.1,0-0.1-0.1-0.2-0.1c-0.1,0-0.1,0-0.2-0.1c-0.1,0-0.1,0-0.2,0c-0.1,0-0.1,0-0.2,0c-0.1,0-0.1,0-0.2,0c-0.1,0-0.1,0-0.2,0
							c-0.1,0-0.1,0-0.2,0c-0.1,0-0.1,0-0.2,0.1c-0.1,0-0.1,0-0.2,0.1c-0.1,0-0.1,0.1-0.2,0.1c-0.1,0-0.1,0.1-0.2,0.1
							c-0.1,0-0.1,0.1-0.1,0.1c0,0-0.1,0.1-0.1,0.1c0,0-0.1,0.1-0.1,0.2c0,0.1-0.1,0.1-0.1,0.2l-25.4,44c0,0.1-0.1,0.1-0.1,0.2
							c0,0.1-0.1,0.1-0.1,0.2c0,0.1,0,0.1-0.1,0.2c0,0.1,0,0.1,0,0.2c0,0.1,0,0.1,0,0.2c0,0.1,0,0.1,0,0.2c0,0.1,0,0.1,0,0.2
							c0,0.1,0,0.1,0,0.2c0,0.1,0,0.1,0.1,0.2c0,0.1,0,0.1,0.1,0.2c0,0.1,0.1,0.1,0.1,0.2c0,0.1,0.1,0.1,0.1,0.2
							c0,0.1,0.1,0.1,0.1,0.1c0,0,0.1,0.1,0.1,0.1c0,0,0.1,0.1,0.2,0.1c0.1,0,0.1,0.1,0.2,0.1l0.9,0.5L253.3,661.5
							c-0.3,0.5-0.5,0.9-0.8,1.4c-0.2,0.5-0.5,0.9-0.7,1.4c-0.2,0.5-0.4,1-0.6,1.4c-0.2,0.5-0.4,1-0.5,1.5c-0.2,0.5-0.3,1-0.5,1.5
							s-0.3,1-0.4,1.5c-0.1,0.5-0.2,1-0.3,1.5c-0.1,0.5-0.2,1-0.2,1.6c-0.1,0.5-0.1,1-0.2,1.6c0,0.5-0.1,1-0.1,1.6c0,0.5,0,1,0,1.6
							c0,0.5,0,1,0.1,1.6c0,0.5,0.1,1,0.1,1.6c0.1,0.5,0.1,1,0.2,1.6c0.1,0.5,0.2,1,0.3,1.5c0.1,0.5,0.2,1,0.4,1.5
							c0.1,0.5,0.3,1,0.4,1.5c0.2,0.5,0.3,1,0.5,1.5c0.2,0.5,0.4,1,0.6,1.5c0.2,0.5,0.4,1,0.7,1.4c0.2,0.5,0.5,0.9,0.7,1.4
							c0.3,0.5,0.5,0.9,0.8,1.4c0.3,0.4,0.6,0.9,0.9,1.3c0.3,0.4,0.6,0.9,0.9,1.3c0.3,0.4,0.6,0.8,1,1.2c0.3,0.4,0.7,0.8,1,1.2
							c0.4,0.4,0.7,0.8,1.1,1.1c0.4,0.4,0.8,0.7,1.2,1.1c0.4,0.3,0.8,0.7,1.2,1c0.4,0.3,0.8,0.6,1.3,0.9c0.4,0.3,0.9,0.6,1.3,0.9
							c0.4,0.3,0.9,0.6,1.3,0.8l249.3,143.9c0.5,0.3,0.9,0.5,1.4,0.8c0.5,0.2,0.9,0.5,1.4,0.7c0.5,0.2,1,0.4,1.4,0.6
							c0.5,0.2,1,0.4,1.5,0.5c0.5,0.2,1,0.3,1.5,0.5c0.5,0.1,1,0.3,1.5,0.4c0.5,0.1,1,0.2,1.5,0.3c0.5,0.1,1,0.2,1.6,0.2
							c0.5,0.1,1,0.1,1.6,0.2c0.5,0,1,0.1,1.6,0.1c0.5,0,1,0,1.6,0c0.5,0,1,0,1.6-0.1c0.5,0,1-0.1,1.6-0.1c0.5-0.1,1-0.1,1.6-0.2
							c0.5-0.1,1-0.2,1.5-0.3c0.5-0.1,1-0.2,1.5-0.4c0.5-0.1,1-0.3,1.5-0.4c0.5-0.2,1-0.3,1.5-0.5c0.5-0.2,1-0.4,1.5-0.6
							c0.5-0.2,1-0.4,1.4-0.7c0.5-0.2,0.9-0.5,1.4-0.7c0.5-0.3,0.9-0.5,1.4-0.8c0.4-0.3,0.9-0.6,1.3-0.9c0.4-0.3,0.9-0.6,1.3-0.9
							c0.4-0.3,0.8-0.6,1.2-1s0.8-0.7,1.2-1c0.4-0.4,0.8-0.7,1.1-1.1c0.4-0.4,0.7-0.8,1.1-1.2c0.3-0.4,0.7-0.8,1-1.2
							c0.3-0.4,0.6-0.8,0.9-1.3c0.3-0.4,0.6-0.9,0.9-1.3c0.3-0.4,0.6-0.9,0.8-1.3L766,477.3l0.9,0.5c0.1,0,0.1,0.1,0.2,0.1
							c0.1,0,0.1,0.1,0.2,0.1c0.1,0,0.1,0,0.2,0.1c0.1,0,0.1,0,0.2,0c0.1,0,0.1,0,0.2,0c0.1,0,0.1,0,0.2,0c0.1,0,0.1,0,0.2,0
							c0.1,0,0.1,0,0.2,0c0.1,0,0.1,0,0.2-0.1c0.1,0,0.1,0,0.2-0.1s0.1-0.1,0.2-0.1c0.1,0,0.1-0.1,0.2-0.1c0.1,0,0.1-0.1,0.1-0.1
							c0,0,0.1-0.1,0.1-0.1c0,0,0.1-0.1,0.1-0.2c0-0.1,0.1-0.1,0.1-0.2l25.4-44c0-0.1,0.1-0.1,0.1-0.2c0-0.1,0.1-0.1,0.1-0.2
							c0-0.1,0-0.1,0.1-0.2c0-0.1,0-0.1,0-0.2c0-0.1,0-0.1,0-0.2c0-0.1,0-0.1,0-0.2c0-0.1,0-0.1,0-0.2c0-0.1,0-0.1,0-0.2
							c0-0.1,0-0.1-0.1-0.2c0-0.1,0-0.1-0.1-0.2c0-0.1-0.1-0.1-0.1-0.2c0-0.1-0.1-0.1-0.1-0.2c0-0.1-0.1-0.1-0.1-0.1
							c0,0-0.1-0.1-0.1-0.1c0,0-0.1-0.1-0.2-0.1s-0.1-0.1-0.2-0.1l-0.9-0.5l6.1-10.6l0.9,0.5c0.1,0,0.1,0.1,0.2,0.1
							c0.1,0,0.1,0.1,0.2,0.1c0.1,0,0.1,0,0.2,0.1c0.1,0,0.1,0,0.2,0c0.1,0,0.1,0,0.2,0c0.1,0,0.1,0,0.2,0c0.1,0,0.1,0,0.2,0
							c0.1,0,0.1,0,0.2,0c0.1,0,0.1,0,0.2-0.1c0.1,0,0.1,0,0.2-0.1c0.1,0,0.1-0.1,0.2-0.1c0.1,0,0.1-0.1,0.2-0.1
							c0.1,0,0.1-0.1,0.1-0.1c0,0,0.1-0.1,0.1-0.1c0,0,0.1-0.1,0.1-0.2c0-0.1,0.1-0.1,0.1-0.2l25.4-44c0-0.1,0.1-0.1,0.1-0.2
							c0-0.1,0.1-0.1,0.1-0.2c0-0.1,0-0.1,0.1-0.2c0-0.1,0-0.1,0-0.2c0-0.1,0-0.1,0-0.2c0-0.1,0-0.1,0-0.2c0-0.1,0-0.1,0-0.2
							c0-0.1,0-0.1,0-0.2c0-0.1,0-0.1-0.1-0.2c0-0.1,0-0.1-0.1-0.2c0-0.1-0.1-0.1-0.1-0.2s-0.1-0.1-0.1-0.2c0-0.1-0.1-0.1-0.1-0.1
							c0,0-0.1-0.1-0.1-0.1s-0.1-0.1-0.2-0.1c-0.1,0-0.1-0.1-0.2-0.1l-0.9-0.5l13.7-23.7l0.9,0.5c0.1,0,0.1,0.1,0.2,0.1
							c0.1,0,0.1,0.1,0.2,0.1c0.1,0,0.1,0,0.2,0.1c0.1,0,0.1,0,0.2,0c0.1,0,0.1,0,0.2,0c0.1,0,0.1,0,0.2,0c0.1,0,0.1,0,0.2,0
							c0.1,0,0.1,0,0.2,0c0.1,0,0.1,0,0.2-0.1c0.1,0,0.1,0,0.2-0.1c0.1,0,0.1-0.1,0.2-0.1c0.1,0,0.1-0.1,0.2-0.1
							c0.1,0,0.1-0.1,0.1-0.1s0.1-0.1,0.1-0.1c0,0,0.1-0.1,0.1-0.2c0-0.1,0.1-0.1,0.1-0.2l14-24.2c0-0.1,0.1-0.1,0.1-0.2
							c0-0.1,0.1-0.1,0.1-0.2c0-0.1,0-0.1,0.1-0.2c0-0.1,0-0.1,0-0.2c0-0.1,0-0.1,0-0.2s0-0.1,0-0.2c0-0.1,0-0.1,0-0.2
							c0-0.1,0-0.1,0-0.2c0-0.1,0-0.1-0.1-0.2c0-0.1,0-0.1-0.1-0.2c0-0.1-0.1-0.1-0.1-0.2c0-0.1-0.1-0.1-0.1-0.2
							c0-0.1-0.1-0.1-0.1-0.1c0,0-0.1-0.1-0.1-0.1c0,0-0.1-0.1-0.2-0.1c-0.1,0-0.1-0.1-0.2-0.1l-0.9-0.5l28.9-50.1
							c0.3-0.5,0.5-0.9,0.8-1.4c0.2-0.5,0.5-0.9,0.7-1.4c0.2-0.5,0.4-1,0.6-1.4c0.2-0.5,0.4-1,0.5-1.5s0.3-1,0.5-1.5
							c0.1-0.5,0.3-1,0.4-1.5c0.1-0.5,0.2-1,0.3-1.5c0.1-0.5,0.2-1,0.2-1.6s0.1-1,0.2-1.6c0-0.5,0.1-1,0.1-1.6s0-1,0-1.6
							c0-0.5,0-1-0.1-1.6c0-0.5-0.1-1-0.1-1.6c-0.1-0.5-0.1-1-0.2-1.6c-0.1-0.5-0.2-1-0.3-1.5c-0.1-0.5-0.2-1-0.4-1.5
							c-0.1-0.5-0.3-1-0.4-1.5c-0.2-0.5-0.3-1-0.5-1.5c-0.2-0.5-0.4-1-0.6-1.5c-0.2-0.5-0.4-1-0.7-1.4c-0.2-0.5-0.5-0.9-0.7-1.4
							c-0.3-0.5-0.5-0.9-0.8-1.4c-0.3-0.4-0.6-0.9-0.9-1.3c-0.3-0.4-0.6-0.9-0.9-1.3c-0.3-0.4-0.6-0.8-1-1.2c-0.3-0.4-0.7-0.8-1-1.2
							c-0.4-0.4-0.7-0.8-1.1-1.1c-0.4-0.4-0.8-0.7-1.2-1.1c-0.4-0.3-0.8-0.7-1.2-1c-0.4-0.3-0.8-0.6-1.3-0.9
							c-0.4-0.3-0.9-0.6-1.3-0.9c-0.4-0.3-0.9-0.6-1.3-0.8L624.5,82.6C624.1,82.3,623.6,82.1,623.1,81.8z"/>
					</defs>
					<clipPath id="SVGID_8_">
						<use xlink:href="#SVGID_7_"  style="overflow:visible;"/>
					</clipPath>
					<g class="st11">
						<g>
							<path id="path_3_1_" class="st4" d="M623.1,81.8c-0.5-0.2-0.9-0.5-1.4-0.7c-0.5-0.2-1-0.4-1.4-0.6c-0.5-0.2-1-0.4-1.5-0.5
								c-0.5-0.2-1-0.3-1.5-0.5s-1-0.3-1.5-0.4c-0.5-0.1-1-0.2-1.5-0.3c-0.5-0.1-1-0.2-1.6-0.2c-0.5-0.1-1-0.1-1.6-0.2
								c-0.5,0-1-0.1-1.6-0.1c-0.5,0-1,0-1.6,0s-1,0-1.6,0.1c-0.5,0-1,0.1-1.6,0.1c-0.5,0.1-1,0.1-1.6,0.2s-1,0.2-1.5,0.3
								c-0.5,0.1-1,0.2-1.5,0.4c-0.5,0.1-1,0.3-1.5,0.4c-0.5,0.2-1,0.3-1.5,0.5c-0.5,0.2-1,0.4-1.5,0.6c-0.5,0.2-1,0.4-1.4,0.7
								c-0.5,0.2-0.9,0.5-1.4,0.7c-0.5,0.3-0.9,0.5-1.4,0.8c-0.4,0.3-0.9,0.6-1.3,0.9c-0.4,0.3-0.9,0.6-1.3,0.9
								c-0.4,0.3-0.8,0.6-1.2,1c-0.4,0.3-0.8,0.7-1.2,1c-0.4,0.4-0.8,0.7-1.1,1.1s-0.7,0.8-1.1,1.2c-0.3,0.4-0.7,0.8-1,1.2
								c-0.3,0.4-0.6,0.8-0.9,1.3c-0.3,0.4-0.6,0.9-0.9,1.3c-0.3,0.4-0.6,0.9-0.8,1.3l-58.6,101.6l-0.9-0.5c-0.1,0-0.1-0.1-0.2-0.1
								c-0.1,0-0.1-0.1-0.2-0.1c-0.1,0-0.1,0-0.2-0.1c-0.1,0-0.1,0-0.2,0c-0.1,0-0.1,0-0.2,0c-0.1,0-0.1,0-0.2,0c-0.1,0-0.1,0-0.2,0
								c-0.1,0-0.1,0-0.2,0c-0.1,0-0.1,0-0.2,0.1c-0.1,0-0.1,0-0.2,0.1c-0.1,0-0.1,0.1-0.2,0.1c-0.1,0-0.1,0.1-0.2,0.1
								c-0.1,0-0.1,0.1-0.1,0.1c0,0-0.1,0.1-0.1,0.1c0,0-0.1,0.1-0.1,0.2c0,0.1-0.1,0.1-0.1,0.2l-25.4,44c0,0.1-0.1,0.1-0.1,0.2
								c0,0.1-0.1,0.1-0.1,0.2c0,0.1,0,0.1-0.1,0.2c0,0.1,0,0.1,0,0.2c0,0.1,0,0.1,0,0.2c0,0.1,0,0.1,0,0.2c0,0.1,0,0.1,0,0.2
								c0,0.1,0,0.1,0,0.2c0,0.1,0,0.1,0.1,0.2c0,0.1,0,0.1,0.1,0.2c0,0.1,0.1,0.1,0.1,0.2c0,0.1,0.1,0.1,0.1,0.2
								c0,0.1,0.1,0.1,0.1,0.1c0,0,0.1,0.1,0.1,0.1c0,0,0.1,0.1,0.2,0.1c0.1,0,0.1,0.1,0.2,0.1l0.9,0.5L253.3,661.5
								c-0.3,0.5-0.5,0.9-0.8,1.4c-0.2,0.5-0.5,0.9-0.7,1.4c-0.2,0.5-0.4,1-0.6,1.4c-0.2,0.5-0.4,1-0.5,1.5c-0.2,0.5-0.3,1-0.5,1.5
								s-0.3,1-0.4,1.5c-0.1,0.5-0.2,1-0.3,1.5c-0.1,0.5-0.2,1-0.2,1.6c-0.1,0.5-0.1,1-0.2,1.6c0,0.5-0.1,1-0.1,1.6c0,0.5,0,1,0,1.6
								c0,0.5,0,1,0.1,1.6c0,0.5,0.1,1,0.1,1.6c0.1,0.5,0.1,1,0.2,1.6c0.1,0.5,0.2,1,0.3,1.5c0.1,0.5,0.2,1,0.4,1.5
								c0.1,0.5,0.3,1,0.4,1.5c0.2,0.5,0.3,1,0.5,1.5c0.2,0.5,0.4,1,0.6,1.5c0.2,0.5,0.4,1,0.7,1.4c0.2,0.5,0.5,0.9,0.7,1.4
								c0.3,0.5,0.5,0.9,0.8,1.4c0.3,0.4,0.6,0.9,0.9,1.3c0.3,0.4,0.6,0.9,0.9,1.3c0.3,0.4,0.6,0.8,1,1.2c0.3,0.4,0.7,0.8,1,1.2
								c0.4,0.4,0.7,0.8,1.1,1.1c0.4,0.4,0.8,0.7,1.2,1.1c0.4,0.3,0.8,0.7,1.2,1c0.4,0.3,0.8,0.6,1.3,0.9c0.4,0.3,0.9,0.6,1.3,0.9
								c0.4,0.3,0.9,0.6,1.3,0.8l249.3,143.9c0.5,0.3,0.9,0.5,1.4,0.8c0.5,0.2,0.9,0.5,1.4,0.7c0.5,0.2,1,0.4,1.4,0.6
								c0.5,0.2,1,0.4,1.5,0.5c0.5,0.2,1,0.3,1.5,0.5c0.5,0.1,1,0.3,1.5,0.4c0.5,0.1,1,0.2,1.5,0.3c0.5,0.1,1,0.2,1.6,0.2
								c0.5,0.1,1,0.1,1.6,0.2c0.5,0,1,0.1,1.6,0.1c0.5,0,1,0,1.6,0c0.5,0,1,0,1.6-0.1c0.5,0,1-0.1,1.6-0.1c0.5-0.1,1-0.1,1.6-0.2
								c0.5-0.1,1-0.2,1.5-0.3c0.5-0.1,1-0.2,1.5-0.4c0.5-0.1,1-0.3,1.5-0.4c0.5-0.2,1-0.3,1.5-0.5c0.5-0.2,1-0.4,1.5-0.6
								c0.5-0.2,1-0.4,1.4-0.7c0.5-0.2,0.9-0.5,1.4-0.7c0.5-0.3,0.9-0.5,1.4-0.8c0.4-0.3,0.9-0.6,1.3-0.9c0.4-0.3,0.9-0.6,1.3-0.9
								c0.4-0.3,0.8-0.6,1.2-1s0.8-0.7,1.2-1c0.4-0.4,0.8-0.7,1.1-1.1c0.4-0.4,0.7-0.8,1.1-1.2c0.3-0.4,0.7-0.8,1-1.2
								c0.3-0.4,0.6-0.8,0.9-1.3c0.3-0.4,0.6-0.9,0.9-1.3c0.3-0.4,0.6-0.9,0.8-1.3L766,477.3l0.9,0.5c0.1,0,0.1,0.1,0.2,0.1
								c0.1,0,0.1,0.1,0.2,0.1c0.1,0,0.1,0,0.2,0.1c0.1,0,0.1,0,0.2,0c0.1,0,0.1,0,0.2,0c0.1,0,0.1,0,0.2,0c0.1,0,0.1,0,0.2,0
								c0.1,0,0.1,0,0.2,0c0.1,0,0.1,0,0.2-0.1c0.1,0,0.1,0,0.2-0.1s0.1-0.1,0.2-0.1c0.1,0,0.1-0.1,0.2-0.1c0.1,0,0.1-0.1,0.1-0.1
								c0,0,0.1-0.1,0.1-0.1c0,0,0.1-0.1,0.1-0.2c0-0.1,0.1-0.1,0.1-0.2l25.4-44c0-0.1,0.1-0.1,0.1-0.2c0-0.1,0.1-0.1,0.1-0.2
								c0-0.1,0-0.1,0.1-0.2c0-0.1,0-0.1,0-0.2c0-0.1,0-0.1,0-0.2c0-0.1,0-0.1,0-0.2c0-0.1,0-0.1,0-0.2c0-0.1,0-0.1,0-0.2
								c0-0.1,0-0.1-0.1-0.2c0-0.1,0-0.1-0.1-0.2c0-0.1-0.1-0.1-0.1-0.2c0-0.1-0.1-0.1-0.1-0.2c0-0.1-0.1-0.1-0.1-0.1
								c0,0-0.1-0.1-0.1-0.1c0,0-0.1-0.1-0.2-0.1s-0.1-0.1-0.2-0.1l-0.9-0.5l6.1-10.6l0.9,0.5c0.1,0,0.1,0.1,0.2,0.1
								c0.1,0,0.1,0.1,0.2,0.1c0.1,0,0.1,0,0.2,0.1c0.1,0,0.1,0,0.2,0c0.1,0,0.1,0,0.2,0c0.1,0,0.1,0,0.2,0c0.1,0,0.1,0,0.2,0
								c0.1,0,0.1,0,0.2,0c0.1,0,0.1,0,0.2-0.1c0.1,0,0.1,0,0.2-0.1c0.1,0,0.1-0.1,0.2-0.1c0.1,0,0.1-0.1,0.2-0.1
								c0.1,0,0.1-0.1,0.1-0.1c0,0,0.1-0.1,0.1-0.1c0,0,0.1-0.1,0.1-0.2c0-0.1,0.1-0.1,0.1-0.2l25.4-44c0-0.1,0.1-0.1,0.1-0.2
								c0-0.1,0.1-0.1,0.1-0.2c0-0.1,0-0.1,0.1-0.2c0-0.1,0-0.1,0-0.2c0-0.1,0-0.1,0-0.2c0-0.1,0-0.1,0-0.2c0-0.1,0-0.1,0-0.2
								c0-0.1,0-0.1,0-0.2c0-0.1,0-0.1-0.1-0.2c0-0.1,0-0.1-0.1-0.2c0-0.1-0.1-0.1-0.1-0.2s-0.1-0.1-0.1-0.2c0-0.1-0.1-0.1-0.1-0.1
								c0,0-0.1-0.1-0.1-0.1s-0.1-0.1-0.2-0.1c-0.1,0-0.1-0.1-0.2-0.1l-0.9-0.5l13.7-23.7l0.9,0.5c0.1,0,0.1,0.1,0.2,0.1
								c0.1,0,0.1,0.1,0.2,0.1c0.1,0,0.1,0,0.2,0.1c0.1,0,0.1,0,0.2,0c0.1,0,0.1,0,0.2,0c0.1,0,0.1,0,0.2,0c0.1,0,0.1,0,0.2,0
								c0.1,0,0.1,0,0.2,0c0.1,0,0.1,0,0.2-0.1c0.1,0,0.1,0,0.2-0.1c0.1,0,0.1-0.1,0.2-0.1c0.1,0,0.1-0.1,0.2-0.1
								c0.1,0,0.1-0.1,0.1-0.1s0.1-0.1,0.1-0.1c0,0,0.1-0.1,0.1-0.2c0-0.1,0.1-0.1,0.1-0.2l14-24.2c0-0.1,0.1-0.1,0.1-0.2
								c0-0.1,0.1-0.1,0.1-0.2c0-0.1,0-0.1,0.1-0.2c0-0.1,0-0.1,0-0.2c0-0.1,0-0.1,0-0.2s0-0.1,0-0.2c0-0.1,0-0.1,0-0.2
								c0-0.1,0-0.1,0-0.2c0-0.1,0-0.1-0.1-0.2c0-0.1,0-0.1-0.1-0.2c0-0.1-0.1-0.1-0.1-0.2c0-0.1-0.1-0.1-0.1-0.2
								c0-0.1-0.1-0.1-0.1-0.1c0,0-0.1-0.1-0.1-0.1c0,0-0.1-0.1-0.2-0.1c-0.1,0-0.1-0.1-0.2-0.1l-0.9-0.5l28.9-50.1
								c0.3-0.5,0.5-0.9,0.8-1.4c0.2-0.5,0.5-0.9,0.7-1.4c0.2-0.5,0.4-1,0.6-1.4c0.2-0.5,0.4-1,0.5-1.5s0.3-1,0.5-1.5
								c0.1-0.5,0.3-1,0.4-1.5c0.1-0.5,0.2-1,0.3-1.5c0.1-0.5,0.2-1,0.2-1.6s0.1-1,0.2-1.6c0-0.5,0.1-1,0.1-1.6s0-1,0-1.6
								c0-0.5,0-1-0.1-1.6c0-0.5-0.1-1-0.1-1.6c-0.1-0.5-0.1-1-0.2-1.6c-0.1-0.5-0.2-1-0.3-1.5c-0.1-0.5-0.2-1-0.4-1.5
								c-0.1-0.5-0.3-1-0.4-1.5c-0.2-0.5-0.3-1-0.5-1.5c-0.2-0.5-0.4-1-0.6-1.5c-0.2-0.5-0.4-1-0.7-1.4c-0.2-0.5-0.5-0.9-0.7-1.4
								c-0.3-0.5-0.5-0.9-0.8-1.4c-0.3-0.4-0.6-0.9-0.9-1.3c-0.3-0.4-0.6-0.9-0.9-1.3c-0.3-0.4-0.6-0.8-1-1.2
								c-0.3-0.4-0.7-0.8-1-1.2c-0.4-0.4-0.7-0.8-1.1-1.1c-0.4-0.4-0.8-0.7-1.2-1.1c-0.4-0.3-0.8-0.7-1.2-1
								c-0.4-0.3-0.8-0.6-1.3-0.9c-0.4-0.3-0.9-0.6-1.3-0.9c-0.4-0.3-0.9-0.6-1.3-0.8L624.5,82.6C624.1,82.3,623.6,82.1,623.1,81.8z
								"/>
						</g>
					</g>
				</g>
			</g>
		</g>
		<path id="Button_1_" class="st12" d="M437.3,750.5c7.6-13.2,3.1-30-10.1-37.6c-13.2-7.6-30-3.1-37.6,10.1s-3.1,30,10.1,37.6
			C412.9,768.2,429.7,763.7,437.3,750.5z"/>
		<g id="food_app_-_ar_x2_3x_1_" transform="translate(25.30354 87.53387)" class="st10">
			<g id="Mask_1_">
				<g>
					<path id="path_4" class="st5" d="M809.9,216.9c0.1,0.1,0.2,0.1,0.3,0.2s0.2,0.2,0.3,0.2c0.1,0.1,0.2,0.2,0.3,0.3
						s0.2,0.2,0.3,0.3c0.1,0.1,0.2,0.2,0.2,0.3c0.1,0.1,0.1,0.2,0.2,0.3s0.1,0.2,0.2,0.4s0.1,0.2,0.1,0.4c0,0.1,0.1,0.3,0.1,0.4
						c0,0.1,0,0.3,0,0.4s0,0.3,0,0.4s0,0.3,0,0.4s0,0.3-0.1,0.4c0,0.1-0.1,0.3-0.1,0.4s-0.1,0.2-0.1,0.4s-0.1,0.2-0.2,0.3
						L543.4,686.4c-0.1,0.1-0.1,0.2-0.2,0.3c-0.1,0.1-0.2,0.2-0.2,0.3c-0.1,0.1-0.2,0.2-0.3,0.3c-0.1,0.1-0.2,0.2-0.3,0.3
						c-0.1,0.1-0.2,0.2-0.3,0.2c-0.1,0.1-0.2,0.1-0.3,0.2c-0.1,0.1-0.2,0.1-0.4,0.2c-0.1,0-0.2,0.1-0.4,0.1s-0.3,0.1-0.4,0.1
						c-0.1,0-0.3,0-0.4,0c-0.1,0-0.3,0-0.4,0c-0.1,0-0.3,0-0.4,0s-0.3,0-0.4-0.1c-0.1,0-0.3-0.1-0.4-0.1c-0.1,0-0.2-0.1-0.4-0.1
						s-0.2-0.1-0.3-0.2L280.6,539.3c-0.1-0.1-0.2-0.1-0.3-0.2c-0.1-0.1-0.2-0.2-0.3-0.2c-0.1-0.1-0.2-0.2-0.3-0.3
						c-0.1-0.1-0.2-0.2-0.3-0.3c-0.1-0.1-0.2-0.2-0.2-0.3c-0.1-0.1-0.1-0.2-0.2-0.3c-0.1-0.1-0.1-0.2-0.2-0.4c0-0.1-0.1-0.2-0.1-0.4
						c0-0.1-0.1-0.3-0.1-0.4c0-0.1,0-0.3,0-0.4c0-0.1,0-0.3,0-0.4c0-0.1,0-0.3,0-0.4c0-0.1,0-0.3,0.1-0.4c0-0.1,0.1-0.3,0.1-0.4
						c0-0.1,0.1-0.2,0.1-0.4c0.1-0.1,0.1-0.2,0.2-0.3L547.1,69.8c0.1-0.1,0.1-0.2,0.2-0.3c0.1-0.1,0.2-0.2,0.2-0.3
						c0.1-0.1,0.2-0.2,0.3-0.3s0.2-0.2,0.3-0.3c0.1-0.1,0.2-0.2,0.3-0.2c0.1-0.1,0.2-0.1,0.3-0.2c0.1-0.1,0.2-0.1,0.4-0.2
						c0.1,0,0.2-0.1,0.4-0.1c0.1,0,0.3-0.1,0.4-0.1c0.1,0,0.3,0,0.4,0c0.1,0,0.3,0,0.4,0c0.1,0,0.3,0,0.4,0c0.1,0,0.3,0,0.4,0.1
						c0.1,0,0.3,0.1,0.4,0.1c0.1,0,0.2,0.1,0.4,0.1c0.1,0.1,0.2,0.1,0.3,0.2L809.9,216.9L809.9,216.9z"/>
				</g>
				<g>
					<defs>
						<path id="SVGID_9_" d="M809.9,216.9c0.1,0.1,0.2,0.1,0.3,0.2s0.2,0.2,0.3,0.2c0.1,0.1,0.2,0.2,0.3,0.3s0.2,0.2,0.3,0.3
							c0.1,0.1,0.2,0.2,0.2,0.3c0.1,0.1,0.1,0.2,0.2,0.3s0.1,0.2,0.2,0.4s0.1,0.2,0.1,0.4c0,0.1,0.1,0.3,0.1,0.4c0,0.1,0,0.3,0,0.4
							s0,0.3,0,0.4s0,0.3,0,0.4s0,0.3-0.1,0.4c0,0.1-0.1,0.3-0.1,0.4s-0.1,0.2-0.1,0.4s-0.1,0.2-0.2,0.3L543.4,686.4
							c-0.1,0.1-0.1,0.2-0.2,0.3c-0.1,0.1-0.2,0.2-0.2,0.3c-0.1,0.1-0.2,0.2-0.3,0.3c-0.1,0.1-0.2,0.2-0.3,0.3
							c-0.1,0.1-0.2,0.2-0.3,0.2c-0.1,0.1-0.2,0.1-0.3,0.2c-0.1,0.1-0.2,0.1-0.4,0.2c-0.1,0-0.2,0.1-0.4,0.1s-0.3,0.1-0.4,0.1
							c-0.1,0-0.3,0-0.4,0c-0.1,0-0.3,0-0.4,0c-0.1,0-0.3,0-0.4,0s-0.3,0-0.4-0.1c-0.1,0-0.3-0.1-0.4-0.1c-0.1,0-0.2-0.1-0.4-0.1
							s-0.2-0.1-0.3-0.2L280.6,539.3c-0.1-0.1-0.2-0.1-0.3-0.2c-0.1-0.1-0.2-0.2-0.3-0.2c-0.1-0.1-0.2-0.2-0.3-0.3
							c-0.1-0.1-0.2-0.2-0.3-0.3c-0.1-0.1-0.2-0.2-0.2-0.3c-0.1-0.1-0.1-0.2-0.2-0.3c-0.1-0.1-0.1-0.2-0.2-0.4
							c0-0.1-0.1-0.2-0.1-0.4c0-0.1-0.1-0.3-0.1-0.4c0-0.1,0-0.3,0-0.4c0-0.1,0-0.3,0-0.4c0-0.1,0-0.3,0-0.4c0-0.1,0-0.3,0.1-0.4
							c0-0.1,0.1-0.3,0.1-0.4c0-0.1,0.1-0.2,0.1-0.4c0.1-0.1,0.1-0.2,0.2-0.3L547.1,69.8c0.1-0.1,0.1-0.2,0.2-0.3
							c0.1-0.1,0.2-0.2,0.2-0.3c0.1-0.1,0.2-0.2,0.3-0.3s0.2-0.2,0.3-0.3c0.1-0.1,0.2-0.2,0.3-0.2c0.1-0.1,0.2-0.1,0.3-0.2
							c0.1-0.1,0.2-0.1,0.4-0.2c0.1,0,0.2-0.1,0.4-0.1c0.1,0,0.3-0.1,0.4-0.1c0.1,0,0.3,0,0.4,0c0.1,0,0.3,0,0.4,0
							c0.1,0,0.3,0,0.4,0c0.1,0,0.3,0,0.4,0.1c0.1,0,0.3,0.1,0.4,0.1c0.1,0,0.2,0.1,0.4,0.1c0.1,0.1,0.2,0.1,0.3,0.2L809.9,216.9
							L809.9,216.9z"/>
					</defs>
					<clipPath id="SVGID_10_">
						<use xlink:href="#SVGID_9_"  style="overflow:visible;"/>
					</clipPath>
					<g class="st13">
						<g>
							<path id="path_4_1_" class="st7" d="M809.9,216.9c0.1,0.1,0.2,0.1,0.3,0.2s0.2,0.2,0.3,0.2c0.1,0.1,0.2,0.2,0.3,0.3
								s0.2,0.2,0.3,0.3c0.1,0.1,0.2,0.2,0.2,0.3c0.1,0.1,0.1,0.2,0.2,0.3s0.1,0.2,0.2,0.4s0.1,0.2,0.1,0.4c0,0.1,0.1,0.3,0.1,0.4
								c0,0.1,0,0.3,0,0.4s0,0.3,0,0.4s0,0.3,0,0.4s0,0.3-0.1,0.4c0,0.1-0.1,0.3-0.1,0.4s-0.1,0.2-0.1,0.4s-0.1,0.2-0.2,0.3
								L543.4,686.4c-0.1,0.1-0.1,0.2-0.2,0.3c-0.1,0.1-0.2,0.2-0.2,0.3c-0.1,0.1-0.2,0.2-0.3,0.3c-0.1,0.1-0.2,0.2-0.3,0.3
								c-0.1,0.1-0.2,0.2-0.3,0.2c-0.1,0.1-0.2,0.1-0.3,0.2c-0.1,0.1-0.2,0.1-0.4,0.2c-0.1,0-0.2,0.1-0.4,0.1s-0.3,0.1-0.4,0.1
								c-0.1,0-0.3,0-0.4,0c-0.1,0-0.3,0-0.4,0c-0.1,0-0.3,0-0.4,0s-0.3,0-0.4-0.1c-0.1,0-0.3-0.1-0.4-0.1c-0.1,0-0.2-0.1-0.4-0.1
								s-0.2-0.1-0.3-0.2L280.6,539.3c-0.1-0.1-0.2-0.1-0.3-0.2c-0.1-0.1-0.2-0.2-0.3-0.2c-0.1-0.1-0.2-0.2-0.3-0.3
								c-0.1-0.1-0.2-0.2-0.3-0.3c-0.1-0.1-0.2-0.2-0.2-0.3c-0.1-0.1-0.1-0.2-0.2-0.3c-0.1-0.1-0.1-0.2-0.2-0.4
								c0-0.1-0.1-0.2-0.1-0.4c0-0.1-0.1-0.3-0.1-0.4c0-0.1,0-0.3,0-0.4c0-0.1,0-0.3,0-0.4c0-0.1,0-0.3,0-0.4c0-0.1,0-0.3,0.1-0.4
								c0-0.1,0.1-0.3,0.1-0.4c0-0.1,0.1-0.2,0.1-0.4c0.1-0.1,0.1-0.2,0.2-0.3L547.1,69.8c0.1-0.1,0.1-0.2,0.2-0.3
								c0.1-0.1,0.2-0.2,0.2-0.3c0.1-0.1,0.2-0.2,0.3-0.3s0.2-0.2,0.3-0.3c0.1-0.1,0.2-0.2,0.3-0.2c0.1-0.1,0.2-0.1,0.3-0.2
								c0.1-0.1,0.2-0.1,0.4-0.2c0.1,0,0.2-0.1,0.4-0.1c0.1,0,0.3-0.1,0.4-0.1c0.1,0,0.3,0,0.4,0c0.1,0,0.3,0,0.4,0
								c0.1,0,0.3,0,0.4,0c0.1,0,0.3,0,0.4,0.1c0.1,0,0.3,0.1,0.4,0.1c0.1,0,0.2,0.1,0.4,0.1c0.1,0.1,0.2,0.1,0.3,0.2L809.9,216.9
								L809.9,216.9z"/>
						</g>
					</g>
				</g>
			</g>
			
				<image style="overflow:visible;" width="1079" height="1847" xlink:href="15E341AD.jpg"  transform="matrix(0.2603 0.1476 -0.1476 0.2603 541.0837 58.0737)">
			</image>
			<g>
				<defs>
					<path id="SVGID_11_" d="M809.9,216.9c0.1,0.1,0.2,0.1,0.3,0.2s0.2,0.2,0.3,0.2c0.1,0.1,0.2,0.2,0.3,0.3s0.2,0.2,0.3,0.3
						c0.1,0.1,0.2,0.2,0.2,0.3c0.1,0.1,0.1,0.2,0.2,0.3s0.1,0.2,0.2,0.4s0.1,0.2,0.1,0.4c0,0.1,0.1,0.3,0.1,0.4c0,0.1,0,0.3,0,0.4
						s0,0.3,0,0.4s0,0.3,0,0.4s0,0.3-0.1,0.4c0,0.1-0.1,0.3-0.1,0.4s-0.1,0.2-0.1,0.4s-0.1,0.2-0.2,0.3L543.4,686.4
						c-0.1,0.1-0.1,0.2-0.2,0.3c-0.1,0.1-0.2,0.2-0.2,0.3c-0.1,0.1-0.2,0.2-0.3,0.3c-0.1,0.1-0.2,0.2-0.3,0.3
						c-0.1,0.1-0.2,0.2-0.3,0.2c-0.1,0.1-0.2,0.1-0.3,0.2c-0.1,0.1-0.2,0.1-0.4,0.2c-0.1,0-0.2,0.1-0.4,0.1s-0.3,0.1-0.4,0.1
						c-0.1,0-0.3,0-0.4,0c-0.1,0-0.3,0-0.4,0c-0.1,0-0.3,0-0.4,0s-0.3,0-0.4-0.1c-0.1,0-0.3-0.1-0.4-0.1c-0.1,0-0.2-0.1-0.4-0.1
						s-0.2-0.1-0.3-0.2L280.6,539.3c-0.1-0.1-0.2-0.1-0.3-0.2c-0.1-0.1-0.2-0.2-0.3-0.2c-0.1-0.1-0.2-0.2-0.3-0.3
						c-0.1-0.1-0.2-0.2-0.3-0.3c-0.1-0.1-0.2-0.2-0.2-0.3c-0.1-0.1-0.1-0.2-0.2-0.3c-0.1-0.1-0.1-0.2-0.2-0.4c0-0.1-0.1-0.2-0.1-0.4
						c0-0.1-0.1-0.3-0.1-0.4c0-0.1,0-0.3,0-0.4c0-0.1,0-0.3,0-0.4c0-0.1,0-0.3,0-0.4c0-0.1,0-0.3,0.1-0.4c0-0.1,0.1-0.3,0.1-0.4
						c0-0.1,0.1-0.2,0.1-0.4c0.1-0.1,0.1-0.2,0.2-0.3L547.1,69.8c0.1-0.1,0.1-0.2,0.2-0.3c0.1-0.1,0.2-0.2,0.2-0.3
						c0.1-0.1,0.2-0.2,0.3-0.3s0.2-0.2,0.3-0.3c0.1-0.1,0.2-0.2,0.3-0.2c0.1-0.1,0.2-0.1,0.3-0.2c0.1-0.1,0.2-0.1,0.4-0.2
						c0.1,0,0.2-0.1,0.4-0.1c0.1,0,0.3-0.1,0.4-0.1c0.1,0,0.3,0,0.4,0c0.1,0,0.3,0,0.4,0c0.1,0,0.3,0,0.4,0c0.1,0,0.3,0,0.4,0.1
						c0.1,0,0.3,0.1,0.4,0.1c0.1,0,0.2,0.1,0.4,0.1c0.1,0.1,0.2,0.1,0.3,0.2L809.9,216.9L809.9,216.9z"/>
				</defs>
				<clipPath id="SVGID_12_">
					<use xlink:href="#SVGID_11_"  style="overflow:visible;"/>
				</clipPath>
				<g class="st14">
					<g transform="matrix(0.3309062 0 0 0.3311886 -453.0939 -141.6243)">
						
							<image style="overflow:visible;enable-background:new    ;" width="3639" height="2466" id="img_3" xlink:href="15E341AF.png"  transform="matrix(-0.2866 -0.1655 -0.1656 0.2868 1276.9312 322.9587)">
						</image>
					</g>
				</g>
			</g>
		</g>
	</g>
</g>
</svg>
